<?xml version="1.0" encoding="UTF-8"?>
<svg width="180px" height="180px" viewBox="0 0 180 180" version="1.1" xmlns="http://www.w3.org/2000/svg" xmlns:xlink="http://www.w3.org/1999/xlink">
    <title>编组 18</title>
    <defs>
        <path d="M30.1724138,18.1724138 L76.2685133,18.1724138 C82.8959303,18.1724138 88.2685133,23.5449968 88.2685133,30.1724138 L88.2685133,76.2685133 C88.2685133,82.8959303 82.8959303,88.2685133 76.2685133,88.2685133 L30.1724138,88.2685133 C23.5449968,88.2685133 18.1724138,82.8959303 18.1724138,76.2685133 L18.1724138,30.1724138 C18.1724138,23.5449968 23.5449968,18.1724138 30.1724138,18.1724138 Z" id="path-1"></path>
        <path d="M61.7057449,12.1403176 L94.3006094,44.7351822 C98.986901,49.4214737 98.986901,57.0194534 94.3006094,61.7057449 L61.7057449,94.3006094 C59.4531703,96.5531841 56.5278596,97.7230065 53.5765453,97.8100767 C52.9256901,97.377345 52.3086363,96.8740635 51.7351822,96.3006094 L19.1403176,63.7057449 C14.4540261,59.0194534 14.4540261,51.4214737 19.1403176,46.7351822 L51.7351822,14.1403176 C53.9882656,11.8872342 56.914389,10.7173921 59.8663817,10.6307915 C60.5158689,11.0640975 61.1325844,11.5671572 61.7057449,12.1403176 Z" id="path-3"></path>
        <linearGradient x1="50%" y1="0%" x2="50%" y2="100%" id="linearGradient-5">
            <stop stop-color="#FF674A" offset="0%"></stop>
            <stop stop-color="#EC5783" offset="100%"></stop>
        </linearGradient>
        <path d="M5.52911885,44.1201552 C7.01754778,44.0302146 8.47318203,44.5823156 9.52757997,45.6367135 C10.5819779,46.6911114 11.1340789,48.1467457 11.0441383,49.6351746 C11.0441383,51.8657917 9.70044697,53.876768 7.63962545,54.7303882 C5.57880394,55.5840084 3.20669575,55.1121668 1.62941124,53.5348823 C0.0521267228,51.9575978 -0.41971494,49.5854896 0.433905279,47.5246681 C1.2875255,45.4638466 3.29850171,44.1201552 5.52911885,44.1201552 Z M5.52911885,-4.41829853e-14 C8.57233063,0.00638660496 11.0377517,2.47180764 11.0441383,5.51501942 L11.0441383,5.51501942 L8.83813054,35.8476261 C8.54527945,37.4449961 7.1531117,38.6051359 5.52911888,38.6051359 C3.90512606,38.6051359 2.51295831,37.4449961 2.22010722,35.8476261 L2.22010722,35.8476261 L0.0140994812,6.06652134 C-0.0950007286,4.52180354 0.432578248,2.99969487 1.47425631,1.85384899 C2.51593437,0.708003116 3.98102373,0.0381766059 5.52911885,-4.41829853e-14 Z" id="path-6"></path>
        <filter x="-49.8%" y="-6.3%" width="199.5%" height="119.9%" filterUnits="objectBoundingBox" id="filter-8">
            <feOffset dx="0" dy="2" in="SourceAlpha" result="shadowOffsetOuter1"></feOffset>
            <feGaussianBlur stdDeviation="1.5" in="shadowOffsetOuter1" result="shadowBlurOuter1"></feGaussianBlur>
            <feColorMatrix values="0 0 0 0 1   0 0 0 0 0.443137255   0 0 0 0 0.443137255  0 0 0 0.3 0" type="matrix" in="shadowBlurOuter1"></feColorMatrix>
        </filter>
    </defs>
    <g id="主界面-0819" stroke="none" stroke-width="1" fill="none" fill-rule="evenodd">
        <g id="证书不安全备份" transform="translate(-870.000000, -356.000000)">
            <g id="编组-11" transform="translate(646.000000, 356.000000)">
                <g id="编组-18" transform="translate(224.000000, 0.000000)">
                    <path d="M171.413086,136.15625 L142.518555,136.15625 C140.059631,136.105125 138.092972,134.09715 138.092972,131.637695 C138.092972,129.17824 140.059631,127.170266 142.518555,127.119141 L156.483398,127.140625 L156.483398,127.126953 L160.821289,127.126953 C162.027153,127.129548 163.184488,126.652204 164.037897,125.80026 C164.891306,124.948317 165.370639,123.791804 165.370117,122.585938 C165.370117,120.079083 163.33791,118.046875 160.831055,118.046875 L160.549805,118.046875 C163.259282,110.551773 164.641302,102.641678 164.633789,94.671875 C164.633789,57.0859375 134.454102,26.5507813 97.0107422,26 L47.0107422,26 C45.806908,26 44.6523797,26.4782213 43.8011403,27.3294606 C42.949901,28.1807 42.4716797,29.3352283 42.4716797,30.5390625 C42.4701244,31.7439116 42.947659,32.8999458 43.7990669,33.7524528 C44.6504749,34.6049599 45.8058921,35.0839854 47.0107422,35.0839844 L64.3349609,35.0839844 C66.8277931,35.0839844 68.8486328,37.1048241 68.8486328,39.5976563 C68.8486328,42.0904884 66.8277931,44.1113281 64.3349609,44.1113281 L8.53417969,44.1113281 C6.03002139,44.1113281 4,46.1413495 4,48.6455078 C4,51.1496661 6.03002139,53.1796875 8.53417969,53.1796875 L41.9052734,53.1796875 C43.1044045,53.1781298 44.2548702,53.6537932 45.1027846,54.5017076 C45.950699,55.349622 46.4263623,56.5000877 46.4248047,57.6992188 C46.4248047,58.896319 45.9492585,60.0443891 45.1027808,60.8908667 C44.2563031,61.7373444 43.108233,62.2128906 41.9111328,62.2128906 L16.8232422,62.2128906 C14.3190839,62.2128906 12.2890625,64.242912 12.2890625,66.7470703 C12.2890625,69.2512286 14.3190839,71.28125 16.8232422,71.28125 L31.4599609,71.28125 C28.7477959,78.7811056 27.3650805,86.6966889 27.3740234,94.671875 C27.3740234,132.599609 58.1005859,163.343753 96.0048828,163.343753 C97.0205078,163.343753 98.0309245,163.321615 99.0361328,163.277344 C99.2941677,163.321808 99.5555451,163.343753 99.8173828,163.343753 L147.27832,163.343753 C149.78949,163.343753 151.825195,161.308045 151.825195,158.796875 C151.825195,156.285705 149.78949,154.25 147.27832,154.25 L113.356445,154.25 C110.86631,154.25 108.847656,152.231346 108.847656,149.741211 C108.847656,147.251075 110.86631,145.232422 113.356445,145.232422 L171.413086,145.232422 C173.914548,145.232422 175.942417,143.204587 175.942417,140.703125 C175.947057,139.498838 175.471928,138.342273 174.622013,137.489059 C173.772098,136.635846 172.617382,136.156241 171.413086,136.15625 L171.413086,136.15625 Z" id="路径" fill-opacity="0.8" fill="#F5EAEA" fill-rule="nonzero"></path>
                    <g id="编组-21" transform="translate(42.000000, 42.000000)">
                        <mask id="mask-2" fill="white">
                            <use xlink:href="#path-1"></use>
                        </mask>
                        <use id="矩形" fill="#FFECEC" transform="translate(53.220464, 53.220464) rotate(45.000000) translate(-53.220464, -53.220464) " xlink:href="#path-1"></use>
                        <mask id="mask-4" fill="white">
                            <use xlink:href="#path-3"></use>
                        </mask>
                        <use id="形状结合" fill="#FFF6F5" xlink:href="#path-3"></use>
                        <g id="编组-20" transform="translate(79.245413, 36.927779) rotate(45.000000) translate(-79.245413, -36.927779) translate(64.245413, 35.427779)" fill="#FFFFFF" fill-rule="nonzero">
                            <path d="M21.2324463,0.224600702 C22.0608584,0.219630917 22.7364704,0.887140164 22.741496,1.71555221 C22.7461718,2.49523414 22.15516,3.13956383 21.3949604,3.21683605 L21.2505445,3.22457399 L0.415733686,3.35029466 C-0.412678364,3.35526444 -1.08829043,2.6877552 -1.09331597,1.85934315 C-1.09799178,1.07966122 -0.506979998,0.435331525 0.25321958,0.358059307 L0.397635538,0.350321367 L21.2324463,0.224600702 Z" id="路径-2"></path>
                            <path d="M25.5326025,0.225384491 L29.4206683,0.351077275 C30.2486629,0.377844555 30.8981859,1.07076595 30.8714187,1.89876052 C30.8462259,2.67804953 30.2309451,3.29924612 29.4683419,3.34731552 L29.3237354,3.34951087 L25.4356696,3.22381808 C24.6076751,3.1970508 23.958152,2.50412941 23.9849193,1.67613484 C24.010112,0.89684583 24.6253928,0.275649237 25.3879961,0.227579841 L25.5326025,0.225384491 Z" id="路径-2"></path>
                        </g>
                        <g id="感叹号" transform="translate(47.567552, 22.694743)">
                            <g id="编组-16" transform="translate(0.020508, 0.000000)">
                                <mask id="mask-7" fill="white">
                                    <use xlink:href="#path-6"></use>
                                </mask>
                                <g id="形状">
                                    <use fill="black" fill-opacity="1" filter="url(#filter-8)" xlink:href="#path-6"></use>
                                    <use fill="url(#linearGradient-5)" fill-rule="evenodd" xlink:href="#path-6"></use>
                                </g>
                            </g>
                        </g>
                        <path d="M76.2685133,16.1724138 L30.1724138,16.1724138 C22.4404273,16.1724138 16.1724138,22.4404273 16.1724138,30.1724138 L16.1724138,76.2685133 C16.1724138,84.0004998 22.4404273,90.2685133 30.1724138,90.2685133 L76.2685133,90.2685133 C84.0004998,90.2685133 90.2685133,84.0004998 90.2685133,76.2685133 L90.2685133,30.1724138 C90.2685133,22.4404273 84.0004998,16.1724138 76.2685133,16.1724138 Z M76.2685133,18.1724138 C82.8959303,18.1724138 88.2685133,23.5449968 88.2685133,30.1724138 L88.2685133,76.2685133 C88.2685133,82.8959303 82.8959303,88.2685133 76.2685133,88.2685133 L30.1724138,88.2685133 C23.5449968,88.2685133 18.1724138,82.8959303 18.1724138,76.2685133 L18.1724138,30.1724138 C18.1724138,23.5449968 23.5449968,18.1724138 30.1724138,18.1724138 L76.2685133,18.1724138 Z" id="矩形" fill-opacity="0.8" fill="#976666" fill-rule="nonzero" transform="translate(53.220464, 53.220464) rotate(45.000000) translate(-53.220464, -53.220464) "></path>
                    </g>
                    <path d="M54.5722656,124.117187 L52.5,126.189453 L50.4277344,124.117187 C50.1825445,123.863324 49.8194552,123.761511 49.4780202,123.850882 C49.1365852,123.940252 48.8699397,124.206898 48.7805692,124.548333 C48.6911986,124.889768 48.7930111,125.252857 49.046875,125.498047 L51.1191406,127.570312 L49.046875,129.642578 C48.7930111,129.887768 48.6911986,130.250857 48.7805692,130.592292 C48.8699397,130.933727 49.1365852,131.200373 49.4780202,131.289743 C49.8194552,131.379114 50.1825445,131.277301 50.4277344,131.023437 L52.5,128.951172 L54.5722656,131.023437 C54.8174555,131.277301 55.1805448,131.379114 55.5219798,131.289743 C55.8634148,131.200373 56.1300603,130.933727 56.2194308,130.592292 C56.3088014,130.250857 56.2069889,129.887768 55.953125,129.642578 L53.8808594,127.570312 L55.953125,125.498047 C56.2069889,125.252857 56.3088014,124.889768 56.2194308,124.548333 C56.1300603,124.206898 55.8634148,123.940252 55.5219798,123.850882 C55.1805448,123.761511 54.8174555,123.863324 54.5722656,124.117187 L54.5722656,124.117187 Z" id="路径" fill="#FFFFFF" fill-rule="nonzero"></path>
                    <path d="M152.296875,99.59375 C149.923776,99.59375 148,97.6699735 148,95.296875 C148,92.9237765 149.923776,91 152.296875,91 C154.669974,91 156.59375,92.9237765 156.59375,95.296875 C156.59375,97.6699735 154.669974,99.59375 152.296875,99.59375 Z M152.296875,92.953125 C151.002458,92.953125 149.953125,94.0024576 149.953125,95.296875 C149.953125,96.5912924 151.002458,97.640625 152.296875,97.640625 C153.591292,97.640625 154.640625,96.5912924 154.640625,95.296875 C154.640625,94.0024576 153.591292,92.953125 152.296875,92.953125 Z" id="形状" fill="#FFFFFF" fill-rule="nonzero"></path>
                    <path d="M118.257813,18.90625 L115.328125,18.90625 L115.328125,15.9765625 C115.328125,15.4372219 114.890903,15 114.351563,15 C113.812222,15 113.375,15.4372219 113.375,15.9765625 L113.375,18.90625 L110.445313,18.90625 C109.905972,18.90625 109.46875,19.3434719 109.46875,19.8828125 C109.46875,20.4221531 109.905972,20.859375 110.445313,20.859375 L113.375,20.859375 L113.375,23.7890625 C113.375,24.3284031 113.812222,24.765625 114.351563,24.765625 C114.890903,24.765625 115.328125,24.3284031 115.328125,23.7890625 L115.328125,20.859375 L118.257813,20.859375 C118.797153,20.859375 119.234375,20.4221531 119.234375,19.8828125 C119.234375,19.3434719 118.797153,18.90625 118.257813,18.90625 L118.257813,18.90625 Z M13.6445313,79.6621094 L12.0175781,78.0351563 L13.6445313,76.4082031 C13.8381664,76.214568 13.9137896,75.9323386 13.8429142,75.667828 C13.7720388,75.4033175 13.5654325,75.1967112 13.300922,75.1258358 C13.0364114,75.0549604 12.754182,75.1305836 12.5605469,75.3242188 L10.9335938,76.9511719 L9.30664063,75.3242188 C9.0073066,75.0248848 8.52199029,75.0248848 8.22265628,75.3242188 C7.92332228,75.6235528 7.92332226,76.1088691 8.22265625,76.4082031 L9.84960938,78.0351563 L8.22265625,79.6621094 C7.92332226,79.9614434 7.92332228,80.4467597 8.22265628,80.7460937 C8.52199029,81.0454277 9.0073066,81.0454277 9.30664063,80.7460938 L10.9335938,79.1191406 L12.5605469,80.7460938 C12.8598809,81.0454277 13.3451972,81.0454277 13.6445312,80.7460937 C13.9438652,80.4467597 13.9438652,79.9614434 13.6445313,79.6621094 L13.6445313,79.6621094 Z" id="形状" fill="#F5EAEA" fill-rule="nonzero"></path>
                    <path d="M148.53125,41.171875 C148.53125,43.4371054 150.367582,45.2734375 152.632812,45.2734375 C154.898043,45.2734375 156.734375,43.4371054 156.734375,41.171875 C156.734375,38.9066446 154.898043,37.0703125 152.632812,37.0703125 C150.367582,37.0703125 148.53125,38.9066446 148.53125,41.171875 Z" id="路径" fill="#F5EAEA" fill-rule="nonzero"></path>
                </g>
            </g>
        </g>
    </g>
</svg>