<?xml version="1.0" encoding="UTF-8"?>
<svg width="36px" height="36px" viewBox="0 0 36 36" version="1.1" xmlns="http://www.w3.org/2000/svg" xmlns:xlink="http://www.w3.org/1999/xlink">
    <title>privacy mode_normal</title>
    <g id="主界面备份" stroke="none" stroke-width="1" fill="none" fill-rule="evenodd">
        <g id="切图" transform="translate(-115.000000, -905.000000)">
            <g id="privacy-mode_normal" transform="translate(115.000000, 905.000000)">
                <g id="编组-11" transform="translate(9.000000, 9.000000)">
                    <path d="M9,0 C13.9705627,0 18,4.02943725 18,9 C18,13.9705627 13.9705627,18 9,18 C4.02943725,18 0,13.9705627 0,9 C0,4.02943725 4.02943725,0 9,0 Z M15,6 C14.3454546,7.93014706 9.98181817,6.38602941 9,8.20588236 C8.01818181,6.38602941 3.65454545,7.87500001 3,6 C3.10909091,13.5551471 8.34545455,11.3492647 9,13.5 C9.65454545,11.3492647 14.8909091,13.5551471 15,6 Z M12.9272727,8.8125 C12.3818182,11.0735294 10.6363636,10.3566176 10.0363636,10.7426471 C10.9090909,8.48161765 11.8909091,9.47426472 12.9272727,8.8125 Z M5.34545454,8.75735294 C6.38181818,9.4742647 7.36363636,8.42647059 8.23636363,10.6875 C8.20087976,10.6695624 8.16235014,10.6547041 8.11953016,10.6405058 C7.35266562,9.36793209 6.50840701,9.76447136 5.61230731,9.51752014 C5.50711559,9.3096404 5.41655395,9.05926403 5.34545454,8.75735294 Z M5.6139057,9.51893284 C6.50294583,9.77403919 7.34780724,9.40133114 8.11599769,10.6407466 C7.51788219,10.4642786 6.36095648,10.7880137 5.68962499,9.65849301 L5.68962499,9.65849301 Z" id="形状结合" fill="#626E88"></path>
                    <g id="编组" transform="translate(3.000000, 6.000000)"></g>
                </g>
            </g>
        </g>
    </g>
</svg>