<?xml version="1.0" encoding="UTF-8"?>
<svg width="117px" height="97px" viewBox="0 0 117 97" version="1.1" xmlns="http://www.w3.org/2000/svg" xmlns:xlink="http://www.w3.org/1999/xlink">
    <title>download icon</title>
    <g id="页面-1" stroke="none" stroke-width="1" fill="none" fill-rule="evenodd" opacity="0.3">
        <g id="下载历史记录-空" transform="translate(-902.000000, -572.000000)">
            <g id="download-icon" transform="translate(902.000000, 572.000000)">
                <g id="下载-(1)" transform="translate(13.736378, 15.821336)" fill="#C5CFE0" fill-rule="nonzero">
                    <path d="M8.38646248,8.07223141e-13 C3.77603323,8.07223141e-13 0,3.76898628 0,8.38558166 L0,72.5626153 C0,77.1720537 3.77603323,80.948197 8.38646248,80.948197 L83.5870267,80.948197 C88.19129,80.948197 91.9672131,77.1721637 91.9672131,72.5626153 L91.9672131,8.38558166 C91.9672131,3.76898628 88.1912901,8.07223141e-13 83.5870267,8.07223141e-13 L8.38646248,8.07223141e-13 Z M59.107606,55.8021325 C59.107606,62.9236778 53.6627806,68.3755501 46.5350693,68.3755501 C39.413524,68.3755501 33.9616517,62.9236779 33.9616517,55.8021325 L8.38657244,55.8021325 L8.38657244,8.38558166 L83.5871369,8.38558166 L83.5871369,55.8021325 L59.107606,55.8021325 Z" id="形状"></path>
                </g>
                <g id="编组-17" transform="translate(3.000000, 4.000000)">
                    <g id="编组-16备份" transform="translate(25.996526, 23.077843) rotate(13.000000) translate(-25.996526, -23.077843) translate(4.496526, 4.577843)">
                        <path d="M20.1386463,0.15767801 C21.2271895,0.15767801 22.2690193,0.465185929 23.1604162,1.01609949 C24.051813,1.56701305 24.7927769,2.36133225 25.2795882,3.33495482 L25.2795882,3.33495482 L26.1087739,4.99332617 C26.2320028,5.23978392 26.4195665,5.44085375 26.6452101,5.58030915 C26.8708536,5.71976454 27.134577,5.79760549 27.4101252,5.79760549 L27.4101252,5.79760549 L38.5080776,5.79760549 C39.6362809,5.79760549 40.6576773,6.25490023 41.3970228,6.9942458 C42.1363684,7.73359137 42.5936631,8.75498777 42.5936631,9.88319108 L42.5936631,9.88319108 L42.5936631,32.9116573 C42.5936631,34.0398606 42.1363684,35.061257 41.3970228,35.8006026 C40.6576773,36.5399482 39.6362809,36.9972429 38.5080776,36.9972429 L38.5080776,36.9972429 L4.19975636,36.9972429 C3.07155305,36.9972429 2.05015666,36.5399482 1.31081109,35.8006026 C0.571465517,35.061257 0.114170774,34.0398606 0.114170774,32.9116573 L0.114170774,32.9116573 L0.114170774,4.2432636 C0.114170774,3.11506029 0.571465517,2.09366389 1.31081109,1.35431832 C2.05015666,0.614972753 3.07155305,0.15767801 4.19975636,0.15767801 L4.19975636,0.15767801 Z" id="Mask" stroke="#232323" stroke-width="3" fill="#232323" transform="translate(21.353917, 18.577460) rotate(-3.000000) translate(-21.353917, -18.577460) "></path>
                        <path d="M41.3801708,13.05084 L41.3804831,33.0258193 C41.3804831,34.4537988 40.222877,35.6114049 38.7948975,35.6114049 L4.48657634,35.6114049 C3.05859685,35.6114049 1.90099075,34.4537988 1.90099075,33.0258193 L1.90017079,13.05084 L41.3801708,13.05084 Z M20.4254663,1.77183999 C22.0343945,1.77183999 23.5052329,2.6808681 24.2247674,4.1199372 L25.0539531,5.77830855 C25.5544989,6.77940009 26.5776908,7.41176747 27.6969452,7.41176747 L38.7948975,7.41176747 C40.222877,7.41176747 41.3804831,8.56937357 41.3804831,9.99735306 L41.3801708,10.23084 L1.90017079,10.23084 L1.90099075,4.35742558 C1.90099075,2.92944609 3.05859685,1.77183999 4.48657634,1.77183999 L20.4254663,1.77183999 Z" id="形状结合" fill="#C5CFE0" transform="translate(21.640466, 18.691622) rotate(-3.000000) translate(-21.640466, -18.691622) "></path>
                    </g>
                    <g id="编组-15备份" transform="translate(60.216320, 46.493795) rotate(-10.000000) translate(-60.216320, -46.493795) translate(38.716320, 27.993795)">
                        <rect id="Rectangle-50" stroke="#232323" stroke-width="4" fill="#232323" stroke-linecap="round" stroke-linejoin="round" x="3.76383806e-15" y="-2.63468664e-13" width="42.3770492" height="36.323185" rx="2"></rect>
                        <path d="M40.3758122,-2.59704826e-13 C41.4810649,-2.59704826e-13 42.3770492,0.897881465 42.3770492,2.00463155 L42.3770492,34.3185535 C42.3770492,35.4256809 41.4723392,36.323185 40.3758122,36.323185 L2.00123693,36.323185 C0.895984294,36.323185 0,35.4253035 0,34.3185535 L0,2.00463155 C0,0.897504114 0.904709983,-2.59704826e-13 2.00123693,-2.59704826e-13 L40.3758122,-2.59704826e-13 Z M24.4696429,12.7816745 L19.8935312,22.2499568 C19.7728723,22.499608 19.5595987,22.5153163 19.4142288,22.2802849 L16.2048425,17.0914104 C15.5435348,16.4301027 14.446694,16.52088 13.9031024,17.2819082 L6.33577223,27.8761705 C5.62026119,28.877886 6.33631847,30.2693208 7.56733021,30.2693208 L34.809719,30.2693208 C35.9861278,30.2693208 36.7127627,28.9859452 36.1075054,27.9771829 L27.0267091,12.8425225 C26.4550752,11.8897993 25.0859462,11.8572195 24.4696429,12.7816745 Z M10.5942623,6.05386417 C8.08666965,6.05386417 6.05386417,8.08666965 6.05386417,10.5942623 C6.05386417,13.1018549 8.08666965,15.1346604 10.5942623,15.1346604 C13.1018549,15.1346604 15.1346604,13.1018549 15.1346604,10.5942623 C15.1346604,8.08666965 13.1018549,6.05386417 10.5942623,6.05386417 Z" id="Combined-Shape" fill="#C5CFE0"></path>
                    </g>
                    <g id="编组-14备份" transform="translate(88.709752, 22.035921) rotate(28.000000) translate(-88.709752, -22.035921) translate(73.709752, 5.535921)">
                        <path d="M27.7540984,-1.5 C28.7205967,-1.5 29.5955967,-1.10824916 30.2289721,-0.474873734 C30.8623475,0.158501688 31.2540984,1.03350169 31.2540984,2 L31.2540984,2 L31.2540984,30.2336066 C31.2540984,31.2001049 30.8623475,32.0751049 30.2289721,32.7084803 C29.5955967,33.3418557 28.7205967,33.7336066 27.7540984,33.7336066 L27.7540984,33.7336066 L2,33.7336066 C1.03350169,33.7336066 0.158501688,33.3418557 -0.474873734,32.7084803 C-1.10824916,32.0751049 -1.5,31.2001049 -1.5,30.2336066 L-1.5,30.2336066 L-1.5,2 C-1.5,1.03350169 -1.10824916,0.158501688 -0.474873734,-0.474873734 C0.158501688,-1.10824916 1.03350169,-1.5 2,-1.5 L2,-1.5 Z" id="矩形" stroke="#232323" stroke-width="3" fill="#232323"></path>
                        <path d="M27.7540984,0 C28.8586679,1.53715886e-15 29.7540984,0.8954305 29.7540984,2 L29.7540984,30.2336066 C29.7540984,31.3381761 28.8586679,32.2336066 27.7540984,32.2336066 L2,32.2336066 C0.8954305,32.2336066 1.87533573e-15,31.3381761 0,30.2336066 L0,2 C-5.7935996e-16,0.8954305 0.8954305,-1.91384796e-17 2,0 L27.7540984,0 Z M7.43852459,24.795082 L2.4795082,24.795082 L2.4795082,28.7540984 C2.4795082,29.3063831 2.92722345,29.7540984 3.4795082,29.7540984 L3.4795082,29.7540984 L7.43852459,29.7540984 L7.43852459,24.795082 Z M27.2745902,24.795082 L22.3155738,24.795082 L22.3155738,29.7540984 L26.2745902,29.7540984 C26.8268749,29.7540984 27.2745902,29.3063831 27.2745902,28.7540984 L27.2745902,28.7540984 L27.2745902,24.795082 Z M7.43852459,17.3565574 L2.4795082,17.3565574 L2.4795082,22.3155738 L7.43852459,22.3155738 L7.43852459,17.3565574 Z M27.2745902,17.3565574 L22.3155738,17.3565574 L22.3155738,22.3155738 L27.2745902,22.3155738 L27.2745902,17.3565574 Z M7.43852459,9.91803279 L2.4795082,9.91803279 L2.4795082,14.8770492 L7.43852459,14.8770492 L7.43852459,9.91803279 Z M27.2745902,9.91803279 L22.3155738,9.91803279 L22.3155738,14.8770492 L27.2745902,14.8770492 L27.2745902,9.91803279 Z M7.43852459,2.4795082 L3.4795082,2.4795082 C2.92722345,2.4795082 2.4795082,2.92722345 2.4795082,3.4795082 L2.4795082,3.4795082 L2.4795082,7.43852459 L7.43852459,7.43852459 L7.43852459,2.4795082 Z M26.2745902,2.4795082 L22.3155738,2.4795082 L22.3155738,7.43852459 L27.2745902,7.43852459 L27.2745902,3.4795082 C27.2745902,2.92722345 26.8268749,2.4795082 26.2745902,2.4795082 L26.2745902,2.4795082 Z" id="形状结合" fill="#C5CFE0"></path>
                    </g>
                </g>
            </g>
        </g>
    </g>
</svg>