<?xml version="1.0" encoding="UTF-8"?>
<svg width="24px" height="24px" viewBox="0 0 24 24" version="1.1" xmlns="http://www.w3.org/2000/svg" xmlns:xlink="http://www.w3.org/1999/xlink">
    <title>autofill_checked</title>
    <g id="主界面备份" stroke="none" stroke-width="1" fill="none" fill-rule="evenodd">
        <g id="切图" transform="translate(-944.000000, -1328.000000)" fill="#FFFFFF" fill-rule="nonzero">
            <g id="autofill备份" transform="translate(944.000000, 1328.000000)">
                <g id="显示设备" transform="translate(3.000000, 4.000000)">
                    <g id="输入" transform="translate(2.000000, 1.000000)">
                        <path d="M14.7881901,1.86154939 C14.8340847,1.96353208 14.870851,2.08244889 14.8986642,2.21843423 C14.9270423,2.35436115 14.941133,2.49598861 14.941133,2.6432621 C14.941133,2.79053558 14.9128328,2.93770973 14.856137,3.0849832 C14.7993049,3.23229563 14.7086435,3.3739231 14.5843319,3.50981106 C14.4483602,3.64581588 14.3266174,3.76471128 14.2189284,3.86665696 C14.1112958,3.96862211 14.0178532,4.05925823 13.9385208,4.13856728 C13.8479587,4.22918392 13.7629413,4.30851438 13.6836284,4.37643793 L10.5058894,1.1988684 C10.6418027,1.07424908 10.80327,0.924155517 10.9901377,0.748505921 C11.1770637,0.572914733 11.332887,0.434204747 11.4574908,0.332202582 C11.6161167,0.207602739 11.7804256,0.119808134 11.950361,0.0687778383 C12.1202555,0.0178449211 12.2873884,-0.00482872059 12.4516194,0.000854310894 C12.6158893,0.00655679908 12.7744568,0.0320330051 12.9274775,0.0773218423 C13.0804009,0.122630174 13.2134513,0.173582548 13.3267085,0.23027834 C13.5647252,0.354995037 13.8281032,0.572994595 14.1169983,0.884491284 C14.4058135,1.19596848 14.6296422,1.52173307 14.7881901,1.86154939 L14.7881901,1.86154939 Z M1.5503263,10.1540264 C1.6182732,10.0860639 1.77691855,9.92460236 2.02610656,9.66972162 C2.27537245,9.41480193 2.58694314,9.10048126 2.96073488,8.72660579 L4.20132682,7.4862203 L5.57781256,6.10979104 L9.2314097,2.45630492 L12.4091097,5.65092351 L8.75555154,9.30437066 L7.39609731,10.6807999 C6.94293227,11.1225989 6.53507945,11.5276531 6.17255443,11.8958066 C5.81005083,12.2639991 5.50977022,12.5669907 5.27188983,12.8049022 C5.03395101,13.0427924 4.89233524,13.1787388 4.84704445,13.2127395 C4.73382622,13.3146852 4.60344209,13.4222924 4.45624067,13.5355457 C4.30898082,13.6489158 4.15605744,13.739513 3.99739261,13.807456 C3.83884464,13.8867845 3.60654988,13.9830277 3.30062521,14.0963375 C2.99477844,14.2096102 2.67474361,14.320059 2.34051877,14.4276877 C2.00637183,14.5353748 1.68915902,14.6288135 1.38885893,14.7081421 C1.08865622,14.7873342 0.864963894,14.8384054 0.717667054,14.8610012 C0.411722905,14.8950019 0.207864663,14.8496741 0.105876136,14.7250743 C0.00392655931,14.6005134 -0.0243911434,14.3909409 0.0208996528,14.0963375 C0.0435752344,13.9377564 0.0974295103,13.7084103 0.182386517,13.4081433 C0.267363,13.1079153 0.357966008,12.7964362 0.454211137,12.4735325 C0.550553645,12.1507263 0.643978693,11.8533203 0.734657664,11.581449 C0.825278208,11.3095971 0.898869171,11.1226398 0.955547427,11.0206942 C1.02353328,10.8621326 1.10002419,10.7176616 1.18496172,10.5873807 C1.26995768,10.4570375 1.39177833,10.3126464 1.5503263,10.1540264 L1.5503263,10.1540264 Z M7.21662655,13.3589398 L8.73630366,13.3589398 L8.73630366,14.8718978 L7.21662655,14.8718978 L7.21662655,13.3589398 L7.21662655,13.3589398 Z M10.3042105,13.3589398 L11.8238876,13.3589398 L11.8238876,14.8718978 L10.3042105,14.8718978 L10.3042105,13.3589398 Z M13.4040952,13.3589398 L14.9237724,13.3589398 L14.9237724,14.8718978 L13.4040952,14.8718978 L13.4040952,13.3589398 Z" id="形状"></path>
                    </g>
                </g>
            </g>
        </g>
    </g>
</svg>