<?xml version="1.0" encoding="UTF-8"?>
<svg width="24px" height="24px" viewBox="0 0 24 24" version="1.1" xmlns="http://www.w3.org/2000/svg" xmlns:xlink="http://www.w3.org/1999/xlink">
    <title>background sync</title>
    <g id="主界面-0819" stroke="none" stroke-width="1" fill="none" fill-rule="evenodd">
        <g id="设置-隐私安全" transform="translate(-520.000000, -993.000000)">
            <g id="编组-8" transform="translate(460.000000, 201.000000)">
                <g id="编组-7">
                    <g id="编组-25" transform="translate(40.000000, 16.000000)">
                        <g id="编组-2备份-28" transform="translate(0.000000, 759.000000)">
                            <g id="background-sync" transform="translate(20.000000, 17.000000)">
                                <g id="刷新-(2)" transform="translate(4.000000, 4.000000)" fill="#626E88" fill-rule="nonzero">
                                    <path d="M16,1.46666667 L16,1.46666667 L16,5.2 L16,5.2 C16,5.6 15.8666667,5.86666667 15.6,6.13333333 C15.3333333,6.4 14.9333333,6.53333333 14.6666667,6.53333333 L14.6666667,6.53333333 L10.9333333,6.53333333 L10.9333333,6.53333333 C10.5333333,6.53333333 10.2666667,6.4 10,6.13333333 C9.46666667,5.6 9.46666667,4.8 10,4.26666667 C10.2666667,4 10.5333333,3.86666667 10.9333333,3.86666667 L10.9333333,3.86666667 L11.4666667,3.86666667 C10.4,3.06666667 9.33333333,2.66666667 8.13333333,2.66666667 C6.53333333,2.66666667 5.2,3.2 4.26666667,4.26666667 L4.26666667,4.26666667 C3.73333333,4.8 2.93333333,4.8 2.4,4.26666667 C1.86666667,3.73333333 1.86666667,2.93333333 2.4,2.4 L2.4,2.4 C3.86666667,0.933333333 5.86666667,0 8.13333333,0 C10.1333333,0 12,0.8 13.3333333,2 L13.3333333,1.46666667 L13.3333333,1.46666667 C13.3333333,1.06666667 13.4666667,0.8 13.7333333,0.533333333 C14.2666667,0 15.0666667,0 15.6,0.533333333 C15.8666667,0.666666667 16,1.06666667 16,1.46666667 Z M6,11.7333333 C5.73333333,12 5.33333333,12.1333333 5.06666667,12.1333333 L5.06666667,12.1333333 L4.66666667,12.1333333 C5.6,12.9333333 6.66666667,13.3333333 7.86666667,13.3333333 C9.33333333,13.3333333 10.6666667,12.8 11.6,11.7333333 L11.6,11.7333333 C12.1333333,11.2 12.9333333,11.2 13.4666667,11.7333333 C14,12.2666667 14,13.0666667 13.4666667,13.6 L13.4666667,13.6 C12.1333333,15.0666667 10.1333333,16 7.86666667,16 C5.86666667,16 4,15.2 2.66666667,14 L2.66666667,14.6666667 L2.66666667,14.6666667 C2.66666667,15.0666667 2.53333333,15.3333333 2.26666667,15.6 C1.73333333,16.1333333 0.933333333,16.1333333 0.4,15.6 C0.133333333,15.3333333 0,14.9333333 0,14.5333333 L0,14.5333333 L0,10.8 L0,10.8 C0,10.4 0.133333333,10.1333333 0.4,9.86666667 C0.666666667,9.6 0.933333333,9.46666667 1.33333333,9.46666667 L1.33333333,9.46666667 L5.06666667,9.46666667 L5.06666667,9.46666667 C5.46666667,9.46666667 5.73333333,9.6 6,9.86666667 C6.53333333,10.4 6.53333333,11.2 6,11.7333333 Z" id="形状"></path>
                                </g>
                                <polygon id="Stroke-1" stroke-opacity="0.00784313771" stroke="#000000" stroke-width="1.33333335e-11" points="0 0 23.9999985 0 23.9999985 23.9999985 0 23.9999985"></polygon>
                            </g>
                        </g>
                    </g>
                </g>
            </g>
        </g>
    </g>
</svg>