<?xml version="1.0" encoding="UTF-8"?>
<svg width="24px" height="24px" viewBox="0 0 24 24" version="1.1" xmlns="http://www.w3.org/2000/svg" xmlns:xlink="http://www.w3.org/1999/xlink">
    <title>camera</title>
    <g id="主界面-0819" stroke="none" stroke-width="1" fill="none" fill-rule="evenodd">
        <g id="设置-隐私安全" transform="translate(-520.000000, -522.000000)">
            <g id="编组-8" transform="translate(460.000000, 201.000000)">
                <g id="编组-7">
                    <g id="编组-25" transform="translate(40.000000, 16.000000)">
                        <g id="编组-2备份-19" transform="translate(0.000000, 288.000000)">
                            <g id="camera" transform="translate(20.000000, 17.000000)">
                                <g id="摄像头" transform="translate(5.000000, 3.000000)" fill="#626E88" fill-rule="nonzero">
                                    <path d="M6.61843752,1.65956329 C2.96891633,1.65956329 0.0105055055,4.61765521 0.0105055055,8.26751523 C0.0105055055,11.9167374 2.96891633,14.8754472 6.61843752,14.8754472 C10.2679587,14.8754472 13.2263695,11.9167374 13.2263695,8.26751523 C13.2263695,4.61765519 10.2679587,1.65956329 6.61843752,1.65956329 Z M6.61843752,11.2410537 C4.97615598,11.2410537 3.64487909,9.90979677 3.64487909,8.26751523 C3.64487909,6.62521376 4.97615598,5.29393685 6.61843752,5.29393685 C8.26073899,5.29393685 9.59199596,6.62521374 9.59199596,8.26751523 C9.59199596,9.90979677 8.26073899,11.2410537 6.61843752,11.2410537 Z" id="形状"></path>
                                    <path d="M4.37824335,15.1639098 C3.90780995,15.7078889 2.91243163,16.8578129 2.65368629,17.1437044 C2.3126455,17.5205613 3.81393455,17.5218568 6.59458,17.5218568 C9.37520554,17.5218568 10.8764946,17.5205812 10.5351349,17.1437044 C10.2744363,16.8558796 9.26516603,15.6898314 8.79957587,15.1509945 C8.10298444,15.4000932 7.35279833,15.5362623 6.57036374,15.5362623 C5.80214,15.5362424 5.06421152,15.4045976 4.37824335,15.1639098 Z" id="路径"></path>
                                    <path d="M7.94000798,1.12138413 C7.8390371,0.490286258 7.28600929,0.00757530514 6.6184176,0.00757530514 C5.95086575,0.00757530514 5.39783794,0.490286258 5.29682722,1.12138413 C5.72498679,1.04072303 6.1666995,0.99878803 6.6184176,0.99878803 C7.0701357,0.99878803 7.51186835,1.04072301 7.94000798,1.12138413 Z" id="路径"></path>
                                </g>
                                <polygon id="Stroke-1" stroke-opacity="0.00784313771" stroke="#000000" stroke-width="1.33333335e-11" points="0 0 23.9999985 0 23.9999985 23.9999985 0 23.9999985"></polygon>
                            </g>
                        </g>
                    </g>
                </g>
            </g>
        </g>
    </g>
</svg>