<?xml version="1.0" encoding="UTF-8"?>
<svg width="20px" height="20px" viewBox="0 0 20 20" version="1.1" xmlns="http://www.w3.org/2000/svg" xmlns:xlink="http://www.w3.org/1999/xlink">
    <title>-mockplus-</title>
    <defs>
        <path d="M3.93184247,11.1818276 C3.47169625,10.6671852 2.68147396,10.6230074 2.16683158,11.0831536 C1.6521892,11.5432998 1.60801132,12.3335221 2.06815753,12.8481645 L5.18412975,16.3331684 C5.69641143,16.9061208 6.59952816,16.8854171 7.08501595,16.2895912 L18.085016,2.78959119 C18.5210951,2.25440311 18.4407515,1.46703544 17.9055634,1.03095627 C17.3703753,0.594877096 16.5830077,0.675220736 16.1469285,1.21040881 L6.0718486,13.5752796 L3.93184247,11.1818276 Z" id="path-1"></path>
        <filter x="-21.1%" y="-15.6%" width="142.1%" height="143.7%" filterUnits="objectBoundingBox" id="filter-2">
            <feOffset dx="0" dy="1" in="SourceAlpha" result="shadowOffsetOuter1"></feOffset>
            <feGaussianBlur stdDeviation="1" in="shadowOffsetOuter1" result="shadowBlurOuter1"></feGaussianBlur>
            <feColorMatrix values="0 0 0 0 0   0 0 0 0 0.505681818   0 0 0 0 1  0 0 0 0.3 0" type="matrix" in="shadowBlurOuter1"></feColorMatrix>
        </filter>
        <rect id="path-3" x="0" y="3" width="16" height="16" rx="4"></rect>
        <filter x="-21.9%" y="-15.6%" width="143.8%" height="143.8%" filterUnits="objectBoundingBox" id="filter-5">
            <feOffset dx="0" dy="1" in="SourceAlpha" result="shadowOffsetOuter1"></feOffset>
            <feGaussianBlur stdDeviation="1" in="shadowOffsetOuter1" result="shadowBlurOuter1"></feGaussianBlur>
            <feColorMatrix values="0 0 0 0 0   0 0 0 0 0.505681818   0 0 0 0 1  0 0 0 0.1 0" type="matrix" in="shadowBlurOuter1"></feColorMatrix>
        </filter>
    </defs>
    <g id="页面-1" stroke="none" stroke-width="1" fill="none" fill-rule="evenodd">
        <g id="历史记录-删除备份-dark" transform="translate(-499.000000, -265.000000)">
            <g id="编组-16" transform="translate(470.000000, 211.000000)">
                <g id="优酷-正在播放阿凡达" transform="translate(29.000000, 46.000000)">
                    <g id="-mockplus-" transform="translate(0.000000, 8.000000)">
                        <g id="checkbox-checked_insensitive" transform="translate(2.000000, -1.000000)">
                            <g id="Path-1112">
                                <use fill="black" fill-opacity="1" filter="url(#filter-2)" xlink:href="#path-1"></use>
                                <use fill="#0081FF" fill-rule="evenodd" xlink:href="#path-1"></use>
                            </g>
                            <mask id="mask-4" fill="white">
                                <use xlink:href="#path-3"></use>
                            </mask>
                            <g id="蒙版">
                                <use fill="black" fill-opacity="1" filter="url(#filter-5)" xlink:href="#path-3"></use>
                                <use fill="#0059D2" fill-rule="evenodd" xlink:href="#path-3"></use>
                            </g>
                            <path d="M3.93184247,11.1818276 C3.47169625,10.6671852 2.68147396,10.6230074 2.16683158,11.0831536 C1.6521892,11.5432998 1.60801132,12.3335221 2.06815753,12.8481645 L5.18412975,16.3331684 C5.69641143,16.9061208 6.59952816,16.8854171 7.08501595,16.2895912 L18.085016,2.78959119 C18.5210951,2.25440311 18.4407515,1.46703544 17.9055634,1.03095627 C17.3703753,0.594877096 16.5830077,0.675220736 16.1469285,1.21040881 L6.0718486,13.5752796 L3.93184247,11.1818276 Z" id="Path-1112" fill="#000000" fill-rule="nonzero" mask="url(#mask-4)"></path>
                        </g>
                    </g>
                </g>
            </g>
        </g>
    </g>
</svg>