<?xml version="1.0" encoding="UTF-8"?>
<svg width="24px" height="24px" viewBox="0 0 24 24" version="1.1" xmlns="http://www.w3.org/2000/svg" xmlns:xlink="http://www.w3.org/1999/xlink">
    <title>clipboard</title>
    <g id="主界面-0819" stroke="none" stroke-width="1" fill="none" fill-rule="evenodd">
        <g id="设置-隐私安全" transform="translate(-520.000000, -1465.000000)">
            <g id="编组-8" transform="translate(460.000000, 201.000000)">
                <g id="编组-7">
                    <g id="编组-25" transform="translate(40.000000, 16.000000)">
                        <g id="编组-2备份-40" transform="translate(0.000000, 1231.000000)">
                            <g id="clipboard" transform="translate(20.000000, 17.000000)">
                                <g id="剪贴板_clipboard69" transform="translate(5.000000, 3.000000)" fill="#626E88" fill-rule="nonzero">
                                    <path d="M3.22725,1.625 L3.22725,3.29712499 C3.22725,3.56037499 3.44256249,3.7740625 3.70824999,3.7740625 L3.70824999,3.7740625 L9.29174999,3.7740625 C9.55581249,3.7740625 9.7735625,3.56037499 9.7735625,3.29712499 L9.7735625,3.29712499 L9.7735625,1.625 L11.2468691,1.62571793 C11.4730796,1.63469204 13,1.75584259 13,3.391375 L13,3.391375 L13,14.2445179 C13,15.8800503 11.4730796,16.0012008 11.2468691,16.0101749 L1.75313087,16.0101749 C1.52692044,16.0012008 1.21946897e-12,15.8800503 1.21946897e-12,14.2445179 L1.21946897e-12,14.2445179 L1.21946897e-12,3.391375 C1.21946897e-12,1.75584259 1.52692044,1.63469204 1.75313087,1.62571793 L3.22725,1.625 Z M6.5,1.90736316e-13 C8.1550625,1.90736316e-13 8.125,1.63149999 8.125,1.63149999 C8.125,1.63149999 8.93750001,1.60956249 8.93750001,2.45862499 C8.93750001,3.15785294 8.38646194,3.2421224 8.19197792,3.2500893 L4.875,3.25 C4.875,3.25 4.06249999,3.25 4.06249999,2.45862499 C4.06249999,1.6664375 4.875,1.63150001 4.875,1.63150001 C4.875,1.63150001 4.8449375,1.90736316e-13 6.5,1.90736316e-13 Z M6.5,0.812500009 C6.0515,0.812500009 5.68749999,1.1765 5.68749999,1.625 C5.68749999,2.0735 6.0515,2.43750001 6.5,2.43750001 C6.9485,2.43750001 7.31250001,2.07350002 7.31250001,1.62500002 C7.31250001,1.17650002 6.9485,0.812500009 6.5,0.812500009 Z" id="形状结合"></path>
                                </g>
                                <polygon id="Stroke-1" stroke-opacity="0.00784313771" stroke="#000000" stroke-width="1.33333335e-11" points="0 0 23.9999985 0 23.9999985 23.9999985 0 23.9999985"></polygon>
                            </g>
                        </g>
                    </g>
                </g>
            </g>
        </g>
    </g>
</svg>