<?xml version="1.0" encoding="UTF-8"?>
<svg width="24px" height="24px" viewBox="0 0 24 24" version="1.1" xmlns="http://www.w3.org/2000/svg" xmlns:xlink="http://www.w3.org/1999/xlink">
    <title>download</title>
    <g id="主界面-0819" stroke="none" stroke-width="1" fill="none" fill-rule="evenodd">
        <g id="设置-隐私安全" transform="translate(-520.000000, -1111.000000)">
            <g id="编组-8" transform="translate(460.000000, 201.000000)">
                <g id="编组-7">
                    <g id="编组-25" transform="translate(40.000000, 16.000000)">
                        <g id="编组-2备份-30" transform="translate(0.000000, 877.000000)">
                            <g id="download" transform="translate(20.000000, 17.000000)">
                                <g id="编组-19" transform="translate(5.000000, 4.000000)" fill="#626E88">
                                    <rect id="矩形" fill-rule="nonzero" x="0" y="14" width="14" height="2.15384615" rx="0.875"></rect>
                                    <path d="M9.8388112,6.59702799 C9.8388112,6.87317037 10.0626688,7.09702799 10.3388112,7.09702799 L11.4705156,7.09702799 C11.746658,7.09702799 11.9705156,7.32088562 11.9705156,7.59702799 C11.9705156,7.72963624 11.9178372,7.8568132 11.824069,7.95058138 L7.35355339,12.421097 C7.15829124,12.6163591 6.84170876,12.6163591 6.64644661,12.421097 L2.175931,7.95058138 C1.98066885,7.75531924 1.98066885,7.43873675 2.175931,7.2434746 C2.26969918,7.14970641 2.39687614,7.09702799 2.52948439,7.09702799 L3.6611888,7.09702799 C3.93733118,7.09702799 4.1611888,6.87317037 4.1611888,6.59702799 L4.1611888,1 C4.1611888,0.44771525 4.60890405,5.45542273e-16 5.1611888,0 L8.8388112,0 C9.39109595,-5.91980459e-16 9.8388112,0.44771525 9.8388112,1 L9.8388112,6.59702799 Z" id="形状"></path>
                                </g>
                                <polygon id="Stroke-1" stroke-opacity="0.00784313771" stroke="#000000" stroke-width="1.33333335e-11" points="0 0 23.9999985 0 23.9999985 23.9999985 0 23.9999985"></polygon>
                            </g>
                        </g>
                    </g>
                </g>
            </g>
        </g>
    </g>
</svg>