<?xml version="1.0" encoding="UTF-8"?>
<svg width="24px" height="24px" viewBox="0 0 24 24" version="1.1" xmlns="http://www.w3.org/2000/svg" xmlns:xlink="http://www.w3.org/1999/xlink">
    <title>download setting_normal</title>
    <g id="主界面" stroke="none" stroke-width="1" fill="none" fill-rule="evenodd">
        <g id="切图" transform="translate(-182.000000, -1328.000000)">
            <g id="download-setting" transform="translate(182.000000, 1328.000000)">
                <g id="Page-1">
                    <polygon id="Stroke-1" stroke-opacity="0.00784313771" stroke="#000000" stroke-width="1.33333335e-11" points="0 0 23.9999985 0 23.9999985 23.9999985 0 23.9999985"></polygon>
                    <path d="M12,4 C16.418278,4 20,7.581722 20,12 C20,16.418278 16.418278,20 12,20 C7.581722,20 4,16.418278 4,12 C4,7.581722 7.581722,4 12,4 Z M13.7857143,12 L10.2142857,12 C9.93814334,12 9.71428571,12.2238576 9.71428571,12.5 L9.71428571,12.5 L9.71428571,12.6428571 C9.71428571,12.9189995 9.49042809,13.1428571 9.21428571,13.1428571 L9.21428571,13.1428571 L8.57142857,13.1428571 C8.44587855,13.1428571 8.32547073,13.1927317 8.23669346,13.281509 C8.05182437,13.4663781 8.05182437,13.7661101 8.23669346,13.9509792 L8.23669346,13.9509792 L11.6464466,17.3607323 C11.8417088,17.5559945 12.1582912,17.5559945 12.3535534,17.3607323 L12.3535534,17.3607323 L15.7633065,13.9509792 C15.8520838,13.8622019 15.9019584,13.7417941 15.9019584,13.6162441 C15.9019584,13.3547997 15.6900158,13.1428571 15.4285714,13.1428571 L15.4285714,13.1428571 L14.7857143,13.1428571 C14.5095719,13.1428571 14.2857143,12.9189995 14.2857143,12.6428571 L14.2857143,12.6428571 L14.2857143,12.5 C14.2857143,12.2238576 14.0618567,12 13.7857143,12 L13.7857143,12 Z M13.7857143,9.71428571 L10.2142857,9.71428571 C9.93814334,9.71428571 9.71428571,9.93814334 9.71428571,10.2142857 L9.71428571,10.2142857 L9.71428571,10.3571429 C9.71428571,10.6332852 9.93814334,10.8571429 10.2142857,10.8571429 L10.2142857,10.8571429 L13.7857143,10.8571429 C14.0618567,10.8571429 14.2857143,10.6332852 14.2857143,10.3571429 L14.2857143,10.3571429 L14.2857143,10.2142857 C14.2857143,9.93814334 14.0618567,9.71428571 13.7857143,9.71428571 L13.7857143,9.71428571 Z M13.7142857,7.42857143 L10.2857143,7.42857143 C9.970123,7.42857143 9.71428571,7.68440871 9.71428571,8 C9.71428571,8.31559129 9.970123,8.57142857 10.2857143,8.57142857 L10.2857143,8.57142857 L13.7142857,8.57142857 C14.029877,8.57142857 14.2857143,8.31559129 14.2857143,8 C14.2857143,7.68440871 14.029877,7.42857143 13.7142857,7.42857143 L13.7142857,7.42857143 Z" id="形状结合" fill="#626E88"></path>
                </g>
            </g>
        </g>
    </g>
</svg>