<?xml version="1.0" encoding="UTF-8"?>
<svg width="24px" height="24px" viewBox="0 0 24 24" version="1.1" xmlns="http://www.w3.org/2000/svg" xmlns:xlink="http://www.w3.org/1999/xlink">
    <title>file editing</title>
    <g id="主界面-0819" stroke="none" stroke-width="1" fill="none" fill-rule="evenodd">
        <g id="设置-隐私安全" transform="translate(-520.000000, -1406.000000)">
            <g id="编组-8" transform="translate(460.000000, 201.000000)">
                <g id="编组-7">
                    <g id="编组-25" transform="translate(40.000000, 16.000000)">
                        <g id="编组-2备份-36" transform="translate(0.000000, 1172.000000)">
                            <g id="file-editing" transform="translate(20.000000, 17.000000)">
                                <path d="M12.5833333,4 L12.5833333,9.41666667 L18,9.41666667 L17.9993333,8.333 L13.6666667,8.33333333 L13.6663333,4 L18,8.33333333 L18,17.1666667 C18,18.2712362 17.1045695,19.1666667 16,19.1666667 L7,19.1666667 C5.8954305,19.1666667 5,18.2712362 5,17.1666667 L5,6 C5,4.8954305 5.8954305,4 7,4 L12.5833333,4 Z M15.2911945,15.9177526 L7.70880548,15.9177526 C7.41669655,15.9177526 7.16666667,16.160265 7.16666667,16.4594192 C7.16666667,16.720784 7.36327296,16.9504422 7.62086775,16.9937602 L7.70880548,17.0010859 L15.2911945,17.0010859 C15.5833035,17.0010859 15.8333333,16.7585735 15.8333333,16.4594192 C15.8333333,16.169014 15.5906095,15.9177526 15.2911945,15.9177526 Z M15.2911945,13.7510859 L7.70880548,13.7510859 C7.41669655,13.7510859 7.16666667,13.9935983 7.16666667,14.2927526 C7.16666667,14.5541173 7.36327296,14.7837755 7.62086775,14.8270935 L7.70880548,14.8344192 L15.2911945,14.8344192 C15.5833035,14.8344192 15.8333333,14.5919068 15.8333333,14.2927526 C15.8333333,14.0023473 15.5906095,13.7510859 15.2911945,13.7510859 Z M15.2911945,11.5844192 L7.70880548,11.5844192 C7.41669655,11.5844192 7.16666667,11.8269317 7.16666667,12.1260859 C7.16666667,12.3874507 7.36327296,12.6171089 7.62086775,12.6604269 L7.70880548,12.6677526 L15.2911945,12.6677526 C15.5833035,12.6677526 15.8333333,12.4252401 15.8333333,12.1260859 C15.8333333,11.8356806 15.5906095,11.5844192 15.2911945,11.5844192 Z" id="形状结合" fill="#626E88"></path>
                                <polygon id="Stroke-1" stroke-opacity="0.00784313771" stroke="#000000" stroke-width="1.33333335e-11" points="0 0 23.9999985 0 23.9999985 23.9999985 0 23.9999985"></polygon>
                            </g>
                        </g>
                    </g>
                </g>
            </g>
        </g>
    </g>
</svg>