<?xml version="1.0" encoding="UTF-8"?>
<svg width="24px" height="24px" viewBox="0 0 24 24" version="1.1" xmlns="http://www.w3.org/2000/svg" xmlns:xlink="http://www.w3.org/1999/xlink">
    <title>flash</title>
    <g id="主界面-0819" stroke="none" stroke-width="1" fill="none" fill-rule="evenodd">
        <g id="设置-隐私安全" transform="translate(-520.000000, -816.000000)">
            <g id="编组-8" transform="translate(460.000000, 201.000000)">
                <g id="编组-7">
                    <g id="编组-25" transform="translate(40.000000, 16.000000)">
                        <g id="编组-2备份-24" transform="translate(0.000000, 582.000000)">
                            <g id="flash" transform="translate(20.000000, 17.000000)">
                                <g id="视频" transform="translate(5.000000, 5.000000)" fill="#626E88" fill-rule="nonzero">
                                    <path d="M0,2.01244019 L0,11 C-8.67738547e-17,12.1045695 0.8954305,13 2,13 L12.9575824,13 C14.0621519,13 14.9575824,12.1045695 14.9575824,11 L14.9575824,2 C14.9592451,0.8954305 14.0638146,-2.02906125e-16 12.9592451,0 C12.9586907,1.01853607e-19 12.9581362,2.30573754e-07 12.9575831,0.00166339542 L1.99999931,0.010776796 C0.896081115,0.0133590108 0.00166408772,0.908520232 0,2.01244019 Z M10.7903372,7.02459173 L6.63994625,9.39918327 C6.35804067,9.56174196 6,9.36214458 6,9.04320031 L6,4.41336411 C6,4.09853525 6.34775214,3.89893787 6.63171543,4.05326574 L10.7821064,6.30851039 C11.0681274,6.46283827 11.0743005,6.86203303 10.7903372,7.02459173 L10.7903372,7.02459173 Z" id="形状"></path>
                                </g>
                                <polygon id="Stroke-1" stroke-opacity="0.00784313771" stroke="#000000" stroke-width="1.33333335e-11" points="0 0 23.9999985 0 23.9999985 23.9999985 0 23.9999985"></polygon>
                            </g>
                        </g>
                    </g>
                </g>
            </g>
        </g>
    </g>
</svg>