<?xml version="1.0" encoding="UTF-8"?>
<svg width="24px" height="24px" viewBox="0 0 24 24" version="1.1" xmlns="http://www.w3.org/2000/svg" xmlns:xlink="http://www.w3.org/1999/xlink">
    <title>handlers</title>
    <g id="主界面-0819" stroke="none" stroke-width="1" fill="none" fill-rule="evenodd">
        <g id="设置-隐私安全" transform="translate(-520.000000, -1229.000000)">
            <g id="编组-8" transform="translate(460.000000, 201.000000)">
                <g id="编组-7">
                    <g id="编组-25" transform="translate(40.000000, 16.000000)">
                        <g id="编组-2备份-32" transform="translate(0.000000, 995.000000)">
                            <g id="handlers" transform="translate(20.000000, 17.000000)">
                                <path d="M5.54093098,15.9303954 L10.3563403,13.1287028 C10.6248358,12.9769444 10.8291259,12.7668175 10.9692106,12.4983219 C11.1092952,12.2298264 11.1793375,11.8504305 11.1793375,11.3601342 C11.1793375,10.706406 11.0275792,10.1810886 10.7240625,9.78418211 L10.7240625,9.78418211 L6.9592879,7.61287028 C6.60907632,7.41441704 6.3143149,7.26265869 6.07500365,7.15759521 C5.8356924,7.05253174 5.59346272,7 5.34831461,7 C5.09149278,7 4.8784474,7.04377645 4.70917846,7.13132934 C4.53990953,7.21888224 4.40274332,7.33270101 4.29767985,7.47278564 C4.19261637,7.61287028 4.1167372,7.77630235 4.07004232,7.96308186 C4.02334744,8.14986137 4,8.34831461 4,8.55844156 C4,8.6401576 4.00291843,8.72771049 4.00875529,8.82110025 C4.01459215,8.91449 4.0291843,8.99620604 4.05253174,9.06624836 L4.05253174,9.06624836 L8.36013425,11.3076025 L5.27827229,12.8660441 C4.88136583,13.0644973 4.58076755,13.2775427 4.37647746,13.5051802 C4.17218736,13.7328177 4.07004232,14.0509266 4.07004232,14.4595068 C4.07004232,14.7630235 4.17218736,15.0461112 4.37647746,15.3087699 C4.58076755,15.5714286 4.96891872,15.7786371 5.54093098,15.9303954 L5.54093098,15.9303954 Z M17.9318547,17.2924267 C18.2470451,17.2924267 18.5038669,17.1990369 18.7023202,17.0122574 C18.9007734,16.8254779 19,16.5161243 19,16.0841967 C19,15.8507223 18.959142,15.6318401 18.8774259,15.42755 C18.7957099,15.2232599 18.7256676,15.0627462 18.667299,14.946009 L18.667299,14.946009 L11.1377499,14.946009 C10.8342332,14.946009 10.5832482,15.0393988 10.384795,15.2261783 C10.1863417,15.4129578 10.0871151,15.7223114 10.0871151,16.154239 C10.0871151,16.3877134 10.1221363,16.6065957 10.1921786,16.8108857 C10.2622209,17.0151758 10.3322632,17.1756895 10.4023056,17.2924267 L10.4023056,17.2924267 L17.9318547,17.2924267 Z" id="&gt;_" fill="#626E88" fill-rule="nonzero"></path>
                                <polygon id="Stroke-1" stroke-opacity="0.00784313771" stroke="#000000" stroke-width="1.33333335e-11" points="0 0 23.9999985 0 23.9999985 23.9999985 0 23.9999985"></polygon>
                            </g>
                        </g>
                    </g>
                </g>
            </g>
        </g>
    </g>
</svg>