<?xml version="1.0" encoding="UTF-8"?>
<svg width="18px" height="10px" viewBox="0 0 18 10" version="1.1" xmlns="http://www.w3.org/2000/svg" xmlns:xlink="http://www.w3.org/1999/xlink">
    <title>形状</title>
    <g id="主界面-0819" stroke="none" stroke-width="1" fill="none" fill-rule="evenodd">
        <g id="设置对话窗样式" transform="translate(-812.000000, -770.000000)" fill="#FFFFFF" fill-rule="nonzero">
            <g id="对话框-12" transform="translate(517.000000, 628.000000)">
                <g id="编组-16" transform="translate(286.000000, 129.000000)">
                    <path d="M20.25,18 C20.25,19.1835714 19.24275,20.1428571 18,20.1428571 C16.75725,20.1428571 15.75,19.1835714 15.75,18 C15.75,17.8578571 15.765,17.7192857 15.79275,17.585 C16.89825,17.9714286 17.988,16.955 17.5965,15.8914286 C17.727,15.87 17.862,15.8571429 18,15.8571429 C19.24275,15.8571429 20.25,16.8171429 20.25,18 Z M18.01125,13 C12.3345,13 9,17.6792857 9,17.6792857 C9,17.6792857 12.62625,23 18.01125,23 C23.811,23 27,17.6792857 27,17.6792857 C27,17.6792857 23.78175,13 18.01125,13 Z M18,21.5714286 C15.92925,21.5714286 14.25,19.9728571 14.25,18 C14.25,16.0278571 15.92925,14.4285714 18,14.4285714 C20.0715,14.4285714 21.75,16.0278571 21.75,18 C21.75,19.9728571 20.0715,21.5714286 18,21.5714286 Z" id="形状"></path>
                </g>
            </g>
        </g>
    </g>
</svg>
