<?xml version="1.0" encoding="UTF-8"?>
<svg width="138px" height="138px" viewBox="0 0 138 138" version="1.1" xmlns="http://www.w3.org/2000/svg" xmlns:xlink="http://www.w3.org/1999/xlink">
    <title>icon_privacy mode</title>
    <g id="主界面备份" stroke="none" stroke-width="1" fill="none" fill-rule="evenodd">
        <g id="隐私模式" transform="translate(-891.000000, -305.000000)">
            <g id="编组-6" transform="translate(0.000000, 131.000000)">
                <g id="编组-14">
                    <g id="编组-16" transform="translate(710.000000, 174.000000)">
                        <g id="icon_privacy-mode" transform="translate(181.000000, 0.000000)">
                            <circle id="椭圆形" fill-opacity="0.8" fill="#FFFFFF" cx="69" cy="69" r="69"></circle>
                            <g id="编组" transform="translate(24.000000, 45.000000)" fill="#000000" fill-rule="nonzero">
                                <path d="M45,16.9705883 C37.6363636,3.38235296 4.90909086,14.5 0,0.5 C0.818181811,56.9117646 40.0909091,40.4411764 45,56.5 C49.9090909,40.4411765 89.1818182,56.9117648 90,0.5 C85.0909091,14.9117647 52.3636363,3.38235296 45,16.9705883 Z M17.5909091,21.0882353 C25.3636363,26.4411764 32.7272727,18.6176471 39.2727272,35.5 C34.3636364,33.0294118 21.6818181,38.3823529 17.5909091,21.0882353 Z M52.7727273,35.9117647 C59.3181818,19.0294118 66.6818181,26.4411765 74.4545455,21.5 C70.3636364,38.3823529 57.2727273,33.0294118 52.7727273,35.9117647 Z" id="形状"></path>
                                <path d="M52,31.5 C56.5660377,28.7 69.8490565,33.9 74,17.5 C69.8490567,33.9 56.5660377,28.7 52,31.5 Z" id="路径"></path>
                            </g>
                        </g>
                    </g>
                </g>
            </g>
        </g>
    </g>
</svg>