<?xml version="1.0" encoding="UTF-8"?>
<svg width="18px" height="15px" viewBox="0 0 18 15" version="1.1" xmlns="http://www.w3.org/2000/svg" xmlns:xlink="http://www.w3.org/1999/xlink">
    <title>形状结合</title>
    <g id="主界面-0819" stroke="none" stroke-width="1" fill="none" fill-rule="evenodd">
        <g id="设置对话窗样式" transform="translate(-767.000000, -767.000000)" fill="#FFFFFF" fill-rule="nonzero">
            <g id="对话框-12" transform="translate(517.000000, 628.000000)">
                <g id="编组-16" transform="translate(241.000000, 129.000000)">
                    <path d="M12.0502525,10.636039 L14.8989479,13.4851369 C14.9033236,13.4837452 14.9077014,13.4823559 14.9120815,13.480969 L16.2642036,14.8335128 L16.253,14.839039 L17.6754563,16.2610042 C17.6751026,16.2553468 17.6747098,16.2496832 17.6742774,16.2440137 L20.1283655,18.6968843 L20.123,18.708039 L21.2299664,19.8159302 C21.2320691,19.8125445 21.2341661,19.8091552 21.2362573,19.8057623 L23.0029174,21.5705772 L22.991,21.576039 L24.7781746,23.363961 L23.363961,24.7781746 L21.0683042,22.4836984 C20.1489313,22.8025398 19.1285352,23 18.01125,23 C12.62625,23 9,17.6792857 9,17.6792857 C9,17.6792857 10.3969849,15.7189044 12.9218863,14.3359047 L10.636039,12.0502525 L12.0502525,10.636039 Z M14.25,18 C14.25,19.9728571 15.92925,21.5714286 18,21.5714286 C18.6306342,21.5714286 19.2248452,21.4232733 19.7463629,21.1615057 L18.6399957,20.0549472 C18.4371486,20.1121507 18.2223434,20.1428571 18,20.1428571 C16.75725,20.1428571 15.75,19.1835714 15.75,18 C15.75,17.8578571 15.765,17.7192857 15.79275,17.585 C15.9477056,17.6391649 16.1023517,17.6657678 16.2526525,17.6685421 L14.7698082,16.1850218 C14.439548,16.7169209 14.25,17.337417 14.25,18 Z M18.01125,13 C23.78175,13 27,17.6792857 27,17.6792857 C27,17.6792857 25.9968214,19.3530477 24.0924879,20.8230473 L21.720415,18.4509137 C21.7399395,18.3032313 21.75,18.1527373 21.75,18 C21.75,16.0278571 20.0715,14.4285714 18,14.4285714 C17.9018473,14.4285714 17.8045741,14.4321646 17.7083177,14.4392203 L16.3972419,13.128159 C16.911713,13.0457339 17.4500353,13 18.01125,13 Z" id="形状结合"></path>
                </g>
            </g>
        </g>
    </g>
</svg>