<?xml version="1.0" encoding="UTF-8"?>
<svg width="24px" height="24px" viewBox="0 0 24 24" version="1.1" xmlns="http://www.w3.org/2000/svg" xmlns:xlink="http://www.w3.org/1999/xlink">
    <title>image</title>
    <g id="主界面-0819" stroke="none" stroke-width="1" fill="none" fill-rule="evenodd">
        <g id="设置-隐私安全" transform="translate(-520.000000, -875.000000)">
            <g id="编组-8" transform="translate(460.000000, 201.000000)">
                <g id="编组-7">
                    <g id="编组-25" transform="translate(40.000000, 16.000000)">
                        <g id="编组-2备份-25" transform="translate(0.000000, 641.000000)">
                            <g id="image" transform="translate(20.000000, 17.000000)">
                                <path d="M18.0059397,5 C19.1072288,5 20,5.89983259 20,6.99417489 L20,16.7201108 C20,17.8214632 19.1054862,18.7142857 18.0059397,18.7142857 L5.99406028,18.7142857 C4.8927712,18.7142857 4,17.8144531 4,16.7201108 L4,6.99417489 C4,5.89282251 4.89451376,5 5.99406028,5 L18.0059397,5 Z M13.2388284,9.8258856 L11.6433406,13.127057 C11.524727,13.3724766 11.3076573,13.3759365 11.1634281,13.1427494 L10.1183467,11.4530818 C9.86866149,11.2033966 9.45453516,11.2376707 9.24929516,11.5250067 L6.3921523,15.5250067 C6.1220019,15.9032173 6.39235854,16.4285714 6.85714286,16.4285714 L17.1428571,16.4285714 C17.5870254,16.4285714 17.8613758,15.9440164 17.6328531,15.5631453 L14.2042817,9.84885957 C13.9884539,9.48914666 13.4715217,9.47684572 13.2388284,9.8258856 Z M8,7.28571429 C7.05322614,7.28571429 6.28571429,8.05322614 6.28571429,9 C6.28571429,9.94677386 7.05322614,10.7142857 8,10.7142857 C8.94677386,10.7142857 9.71428571,9.94677386 9.71428571,9 C9.71428571,8.05322614 8.94677386,7.28571429 8,7.28571429 Z" id="Combined-Shape" fill="#626E88"></path>
                                <polygon id="Stroke-1" stroke-opacity="0.00784313771" stroke="#000000" stroke-width="1.33333335e-11" points="0 0 23.9999985 0 23.9999985 23.9999985 0 23.9999985"></polygon>
                            </g>
                        </g>
                    </g>
                </g>
            </g>
        </g>
    </g>
</svg>