<?xml version="1.0" encoding="UTF-8"?>
<svg width="36px" height="36px" viewBox="0 0 36 36" version="1.1" xmlns="http://www.w3.org/2000/svg" xmlns:xlink="http://www.w3.org/1999/xlink">
    <title>list_more_normal</title>
    <defs>
        <circle id="path-1" cx="17.5" cy="18.5" r="8.5"></circle>
        <filter x="-47.1%" y="-35.3%" width="194.1%" height="194.1%" filterUnits="objectBoundingBox" id="filter-2">
            <feMorphology radius="1" operator="dilate" in="SourceAlpha" result="shadowSpreadOuter1"></feMorphology>
            <feOffset dx="0" dy="2" in="shadowSpreadOuter1" result="shadowOffsetOuter1"></feOffset>
            <feGaussianBlur stdDeviation="2" in="shadowOffsetOuter1" result="shadowBlurOuter1"></feGaussianBlur>
            <feComposite in="shadowBlurOuter1" in2="SourceAlpha" operator="out" result="shadowBlurOuter1"></feComposite>
            <feColorMatrix values="0 0 0 0 0   0 0 0 0 0   0 0 0 0 0  0 0 0 0.05 0" type="matrix" in="shadowBlurOuter1"></feColorMatrix>
        </filter>
    </defs>
    <g id="主界面" stroke="none" stroke-width="1" fill="none" fill-rule="evenodd">
        <g id="切图" transform="translate(-110.000000, -1235.000000)">
            <g id="list_more_normal" transform="translate(110.000000, 1235.000000)">
                <g id="Oval-359">
                    <use fill="black" fill-opacity="1" filter="url(#filter-2)" xlink:href="#path-1"></use>
                    <use fill-opacity="0.08" fill="#000000" fill-rule="evenodd" xlink:href="#path-1"></use>
                    <circle stroke-opacity="0.03" stroke="#000000" stroke-width="1" fill="#FFFFFF" fill-rule="evenodd" cx="17.5" cy="18.5" r="9"></circle>
                </g>
                <path d="M14.125,17 C14.7463203,17 15.25,17.5036797 15.25,18.125 C15.25,18.7463203 14.7463203,19.25 14.125,19.25 C13.5036797,19.25 13,18.7463203 13,18.125 C13,17.5036797 13.5036797,17 14.125,17 Z M17.5,17 C18.1213203,17 18.625,17.5036797 18.625,18.125 C18.625,18.7463203 18.1213203,19.25 17.5,19.25 C16.8786797,19.25 16.375,18.7463203 16.375,18.125 C16.375,17.5036797 16.8786797,17 17.5,17 Z M20.875,17 C21.4963203,17 22,17.5036797 22,18.125 C22,18.7463203 21.4963203,19.25 20.875,19.25 C20.2536797,19.25 19.75,18.7463203 19.75,18.125 C19.75,17.5036797 20.2536797,17 20.875,17 Z" id="Combined-Shape" fill="#626E88" fill-rule="nonzero"></path>
                <rect id="矩形" x="0" y="0" width="36" height="36"></rect>
            </g>
        </g>
    </g>
</svg>