<?xml version="1.0" encoding="UTF-8"?>
<svg width="24px" height="24px" viewBox="0 0 24 24" version="1.1" xmlns="http://www.w3.org/2000/svg" xmlns:xlink="http://www.w3.org/1999/xlink">
    <title>location</title>
    <g id="主界面-0819" stroke="none" stroke-width="1" fill="none" fill-rule="evenodd">
        <g id="设置-隐私安全" transform="translate(-520.000000, -463.000000)">
            <g id="编组-8" transform="translate(460.000000, 201.000000)">
                <g id="编组-7">
                    <g id="编组-25" transform="translate(40.000000, 16.000000)">
                        <g id="编组-2备份-18" transform="translate(0.000000, 229.000000)">
                            <g id="location" transform="translate(20.000000, 17.000000)">
                                <path d="M12.0339224,3.00149657 C12.0119726,2.99950114 11.9880273,2.99950114 11.9660775,3.00149657 C7.47434436,3.12521379 5,5.63747149 5,10.0753278 C5,14.5949971 10.6710376,19.8090792 10.9124857,20.0285775 C11.1160205,20.2141533 11.3973774,20.3179162 11.690707,20.3179162 L12.3072976,20.3179162 C12.6006271,20.3179162 12.881984,20.2141534 13.0875142,20.0285775 C13.3289624,19.8090792 19,14.5949971 19,10.0753278 C19,5.63747149 16.5256556,3.12521379 12.0339224,3.00149657 L12.0339224,3.00149657 Z M12,6.93849771 C13.4905929,6.93849771 14.7038198,7.99807582 14.7038198,9.30109749 C14.7038198,10.6041192 13.4905929,11.6636973 12,11.6636973 C10.5094071,11.6636973 9.29618016,10.6041191 9.29618016,9.30109749 C9.29618016,7.99807582 10.5094071,6.93849771 12,6.93849771 L12,6.93849771 Z" id="形状" fill="#626E88" fill-rule="nonzero"></path>
                                <polygon id="Stroke-1" stroke-opacity="0.00784313771" stroke="#000000" stroke-width="1.33333335e-11" points="0 0 23.9999985 0 23.9999985 23.9999985 0 23.9999985"></polygon>
                            </g>
                        </g>
                    </g>
                </g>
            </g>
        </g>
    </g>
</svg>