<?xml version="1.0" encoding="UTF-8"?>
<svg width="24px" height="24px" viewBox="0 0 24 24" version="1.1" xmlns="http://www.w3.org/2000/svg" xmlns:xlink="http://www.w3.org/1999/xlink">
    <title>microphone</title>
    <g id="主界面-0819" stroke="none" stroke-width="1" fill="none" fill-rule="evenodd">
        <g id="设置-隐私安全" transform="translate(-520.000000, -581.000000)">
            <g id="编组-8" transform="translate(460.000000, 201.000000)">
                <g id="编组-7">
                    <g id="编组-25" transform="translate(40.000000, 16.000000)">
                        <g id="编组-2备份-20" transform="translate(0.000000, 347.000000)">
                            <g id="camera" transform="translate(20.000000, 17.000000)">
                                <g id="麦克风2" transform="translate(5.000000, 3.000000)" fill="#626E88" fill-rule="nonzero">
                                    <path d="M13.0194196,6.43191964 C13.4425223,6.43191964 13.7840402,6.77533482 13.7821507,7.1984375 C13.7821507,10.6857143 11.1771205,13.5753348 7.809375,14.0268973 L7.809375,14.0268973 L7.809375,16.0816964 C7.809375,16.5863839 7.39575893,17 6.89107143,17 C6.38638393,17 5.97276786,16.5863839 5.97276786,16.0816964 L5.97276786,16.0816964 L5.97276786,14.0268973 C2.60502232,13.5753348 1.21502808e-12,10.6876116 1.21502808e-12,7.1984375 C1.21502808e-12,6.77533482 0.343415179,6.43191964 0.766517857,6.43191964 C1.18962054,6.43191964 1.53303571,6.77533482 1.53303571,7.1984375 C1.53303571,10.1544643 3.93694196,12.5583705 6.89296875,12.5583705 C9.84899554,12.5583705 12.2529018,10.1544643 12.2529018,7.1984375 C12.2529018,6.77533482 12.596317,6.43191964 13.0194196,6.43191964 Z M6.89296875,-1.1111112e-12 C8.91361607,-1.1111112e-12 10.5680804,1.65446429 10.5680804,3.67511161 L10.5680804,3.67511161 L10.5680804,7.1984375 C10.5680804,9.21908482 8.91361607,10.8735491 6.89296875,10.8735491 C4.87042411,10.8735491 3.21785714,9.21908482 3.21785714,7.1984375 L3.21785714,7.1984375 L3.21785714,3.67511161 C3.21785714,1.65446429 4.87042411,-1.1111112e-12 6.89296875,-1.1111112e-12 Z" id="形状结合"></path>
                                </g>
                                <polygon id="Stroke-1" stroke-opacity="0.00784313771" stroke="#000000" stroke-width="1.33333335e-11" points="0 0 23.9999985 0 23.9999985 23.9999985 0 23.9999985"></polygon>
                            </g>
                        </g>
                    </g>
                </g>
            </g>
        </g>
    </g>
</svg>