<?xml version="1.0" encoding="UTF-8"?>
<svg width="24px" height="24px" viewBox="0 0 24 24" version="1.1" xmlns="http://www.w3.org/2000/svg" xmlns:xlink="http://www.w3.org/1999/xlink">
    <title>MIDI</title>
    <g id="主界面-0819" stroke="none" stroke-width="1" fill="none" fill-rule="evenodd">
        <g id="设置-隐私安全" transform="translate(-520.000000, -1288.000000)">
            <g id="编组-8" transform="translate(460.000000, 201.000000)">
                <g id="编组-7">
                    <g id="编组-25" transform="translate(40.000000, 16.000000)">
                        <g id="编组-2备份-33" transform="translate(0.000000, 1054.000000)">
                            <g id="MIDI" transform="translate(20.000000, 17.000000)">
                                <g id="编组-7" transform="translate(4.000000, 5.000000)" fill="#626E88">
                                    <path d="M14,0 C15.1045695,-2.02906125e-16 16,0.8954305 16,2 L16,11 C16,12.1045695 15.1045695,13 14,13 L2,13 C0.8954305,13 1.3527075e-16,12.1045695 0,11 L0,2 C-1.3527075e-16,0.8954305 0.8954305,2.02906125e-16 2,0 L14,0 Z M6,2 L5,2 L5,4 L4,4 L4,9 L5,9 L5,11 L6,11 L6,9 L7,9 L7,4 L6,4 L6,2 Z M11,2 L10,2 L10,4 L9,4 L9,9 L10,9 L10,11 L11,11 L11,9 L12,9 L12,4 L11,4 L11,2 Z" id="形状结合"></path>
                                </g>
                                <polygon id="Stroke-1" stroke-opacity="0.00784313771" stroke="#000000" stroke-width="1.33333335e-11" points="0 0 23.9999985 0 23.9999985 23.9999985 0 23.9999985"></polygon>
                            </g>
                        </g>
                    </g>
                </g>
            </g>
        </g>
    </g>
</svg>