<?xml version="1.0" encoding="UTF-8"?>
<svg width="24px" height="24px" viewBox="0 0 24 24" version="1.1" xmlns="http://www.w3.org/2000/svg" xmlns:xlink="http://www.w3.org/1999/xlink">
    <title>motion</title>
    <g id="主界面-0819" stroke="none" stroke-width="1" fill="none" fill-rule="evenodd">
        <g id="设置-隐私安全" transform="translate(-520.000000, -640.000000)">
            <g id="编组-8" transform="translate(460.000000, 201.000000)">
                <g id="编组-7">
                    <g id="编组-25" transform="translate(40.000000, 16.000000)">
                        <g id="编组-2备份-21" transform="translate(0.000000, 406.000000)">
                            <g id="microphone" transform="translate(20.000000, 17.000000)">
                                <g id="广播,公告,喇叭_jurassic" transform="translate(4.000000, 5.000000)" fill="#626E88" fill-rule="nonzero">
                                    <path d="M12.5709564,0.131210007 C14.7179935,1.57120114 16,3.97204968 16,6.55419206 C16,9.12597479 14.7257632,11.5216435 12.5916757,12.9590447 C12.4595901,13.0496917 12.3067853,13.0911302 12.1591603,13.0911302 C11.9105288,13.0911302 11.667077,12.9719943 11.5168621,12.7518518 C11.2760003,12.3970338 11.3692371,11.9179001 11.7240551,11.6796281 C13.4333971,10.5271172 14.4538225,8.61058228 14.4538225,6.55160215 C14.4538225,4.48744219 13.4282173,2.5657274 11.7085156,1.41321651 C11.3562876,1.17494459 11.2604608,0.695810849 11.4987327,0.340992889 C11.7344147,-0.0112351591 12.2161384,-0.107061907 12.5709564,0.131210007 Z M3.42904364,0.131210007 C3.7838616,-0.107061907 4.26558526,-0.0112351591 4.50126726,0.340992889 C4.73953918,0.695810849 4.64371243,1.17494459 4.29148438,1.41321651 C2.57178273,2.5657274 1.54617753,4.48744219 1.54617753,6.55160215 C1.54617753,8.61058228 2.56660291,10.5271172 4.27594491,11.6796281 C4.63076287,11.9179001 4.7239997,12.3970338 4.48313788,12.7518518 C4.33292297,12.9719943 4.08947123,13.0911302 3.84083967,13.0911302 C3.69321468,13.0911302 3.54040986,13.0496917 3.40832435,12.9590447 C1.27423676,11.5216435 -4.52970994e-14,9.12597479 -4.52970994e-14,6.55419206 C-4.52970994e-14,3.97204968 1.2820065,1.57120114 3.42904364,0.131210007 Z M10.1286692,2.57349713 C11.4598841,3.46701681 12.2523972,4.95362637 12.2549871,6.55419206 C12.2549871,8.14698801 11.4650639,9.63359757 10.1416188,10.5245273 C10.0095333,10.6151743 9.85672846,10.6566129 9.70910347,10.6566129 C9.4604719,10.6566129 9.21702016,10.5374769 9.06680526,10.3147445 C8.82594343,9.95992649 8.91918027,9.48079275 9.27399823,9.24252084 C10.1726977,8.6364814 10.7062196,7.6315955 10.7062196,6.55160215 C10.7062196,5.46901888 10.1675179,4.45895316 9.26622849,3.85550363 C8.91400045,3.61723172 8.8181737,3.13809798 9.05644561,2.78328002 C9.29471753,2.43105197 9.77385127,2.33522522 10.1286692,2.57349713 Z M5.87133077,2.57349713 C6.22614873,2.33522522 6.70528247,2.43105197 6.94355439,2.78328002 C7.1818263,3.13809798 7.08599955,3.61723172 6.73377151,3.85550363 C5.83248209,4.45895316 5.29378037,5.46901888 5.29378037,6.55160215 C5.29378037,7.6315955 5.82730226,8.6364814 6.72600177,9.24252084 C7.08081973,9.48079275 7.17405657,9.95992649 6.93319474,10.3147445 C6.78297984,10.5374769 6.5395281,10.6566129 6.29089653,10.6566129 C6.14327154,10.6566129 5.99046673,10.6151743 5.85838121,10.5245273 C4.53493612,9.63359757 3.74501292,8.14698801 3.74501292,6.55419206 C3.74760283,4.95362637 4.54011594,3.46701681 5.87133077,2.57349713 Z" id="形状结合"></path>
                                </g>
                                <polygon id="Stroke-1" stroke-opacity="0.00784313771" stroke="#000000" stroke-width="1.33333335e-11" points="0 0 23.9999985 0 23.9999985 23.9999985 0 23.9999985"></polygon>
                            </g>
                        </g>
                    </g>
                </g>
            </g>
        </g>
    </g>
</svg>