<?xml version="1.0" encoding="UTF-8"?>
<svg width="16px" height="16px" viewBox="0 0 16 16" version="1.1" xmlns="http://www.w3.org/2000/svg" xmlns:xlink="http://www.w3.org/1999/xlink">
    <title>形状结合</title>
    <g id="主界面-0819" stroke="none" stroke-width="1" fill="none" fill-rule="evenodd">
        <g id="设置-所有网站数据" transform="translate(-517.000000, -530.000000)" fill="#626E88" fill-rule="nonzero">
            <g id="编组-6" transform="translate(497.000000, 316.000000)">
                <g id="编组-7备份-2" transform="translate(10.000000, 202.000000)">
                    <g id="编组-15" transform="translate(10.000000, 7.000000)">
                        <g id="podcast-new" transform="translate(0.000000, 5.000000)">
                            <path d="M8,-0.00446428571 C12.4182857,-0.00446428571 16,3.57724994 16,7.99553571 C16,12.4138217 12.4182857,15.9955357 8,15.9955357 C3.58171429,15.9955357 0,12.4138217 0,7.99553571 C0,3.57724994 3.58171429,-0.00446428571 8,-0.00446428571 Z M8,1.13839286 C4.21289682,1.13839286 1.14285714,4.20843254 1.14285714,7.99553571 C1.14285714,11.7826391 4.21289682,14.8526786 8,14.8526786 C11.7871032,14.8526786 14.8571429,11.7826391 14.8571429,7.99553571 C14.8571429,4.20843254 11.7871032,1.13839286 8,1.13839286 Z M7.67857143,2.20982149 C7.68771429,2.24639291 7.62291429,2.37653006 7.53571429,2.56696434 C6.98044571,3.7799928 6.94894857,5.20050709 7.46428571,5.95982149 C7.55754286,6.09749006 7.64285714,6.22850709 7.64285714,6.24553577 C7.64285714,6.26256434 7.54228571,6.28125006 7.42857143,6.28125006 C7.16162286,6.28125006 6.90900571,6.11854149 6.39285714,5.70982149 C6.16356571,5.52825566 5.86548571,5.37576434 5.75,5.35267863 C5.56865143,5.31644994 5.52032,5.33233577 5.28571429,5.56696434 C5.06744,5.78520423 5,5.90288423 5,6.10267863 C5,6.86032423 5.89952,7.46256423 7.57142857,7.81696434 C9.84194286,8.29818709 10.4016571,8.7301872 10.4642857,9.9241072 C10.5429143,11.4212503 9.74582857,12.5501646 8,13.4241074 C7.79162286,13.5284503 7.65885714,13.5689646 7.57142857,13.6026789 L7.46428571,13.6026789 L7.46428571,13.6026789 C7.44942857,13.5563931 7.42857143,13.4490103 7.42857143,13.245536 C7.42857143,12.4503589 7.11514286,11.6318217 6.64285714,11.1741074 C6.51608,11.0512274 6.16112,10.7908503 5.85714286,10.6026789 C5.55317714,10.4145189 5.24691429,10.1959358 5.17857143,10.1026786 C5.06531429,9.94792423 5.05584,9.85284994 5.14285714,9.56696434 C5.30144,9.04482709 5.49019429,8.75401566 5.85714286,8.4241072 C6.04952,8.25114709 6.24309714,8.10610709 6.28571429,8.10267863 C6.32834286,8.09925006 6.03982857,8.01262137 5.60714286,7.9241072 C5.17448,7.83542149 4.54152,7.64968434 4.21428571,7.53125006 C3.61590857,7.31473577 2.808,6.86020994 2.5,6.53125006 C2.48697143,6.51730709 2.4756,6.50787863 2.46428571,6.49553577 C2.90557714,4.7377072 4.144,3.29696434 5.78571429,2.60267863 C6.12922286,2.4573872 6.48333714,2.3577072 6.85714286,2.28125006 C7.04333714,2.24319291 7.23632,2.22936423 7.42857143,2.20982149 C7.50502857,2.20182137 7.60142857,2.2143928 7.67857143,2.20982149 Z M12.7857143,4.88839291 C12.9199429,4.97136423 13.4267543,6.06782149 13.5714286,6.60267863 C13.7582171,7.29318137 13.7446971,8.48816423 13.5714286,9.1741072 C13.5054857,9.43518149 13.4209714,9.67942137 13.3928571,9.70982149 C13.3647429,9.74022149 13.2627886,9.56521566 13.1428571,9.35267863 C13.0229143,9.14017577 12.6398171,8.68862137 12.3214286,8.35267863 C11.4024114,7.38292994 11.2578971,6.87662137 11.6428571,6.10267863 C11.8369943,5.71240434 12.6818286,4.82427863 12.7857143,4.88839291 Z" id="形状结合"></path>
                        </g>
                    </g>
                </g>
            </g>
        </g>
    </g>
</svg>