<?xml version="1.0" encoding="UTF-8"?>
<svg width="24px" height="24px" viewBox="0 0 24 24" version="1.1" xmlns="http://www.w3.org/2000/svg" xmlns:xlink="http://www.w3.org/1999/xlink">
    <title>notifications</title>
    <g id="主界面-0819" stroke="none" stroke-width="1" fill="none" fill-rule="evenodd">
        <g id="设置-隐私安全" transform="translate(-520.000000, -699.000000)">
            <g id="编组-8" transform="translate(460.000000, 201.000000)">
                <g id="编组-7">
                    <g id="编组-25" transform="translate(40.000000, 16.000000)">
                        <g id="编组-2备份-22" transform="translate(0.000000, 465.000000)">
                            <g id="notifications" transform="translate(20.000000, 17.000000)">
                                <g id="铃声" transform="translate(5.000000, 4.000000)" fill="#626E88" fill-rule="nonzero">
                                    <path d="M12.8418633,10.7464845 L11.9389223,9.41291026 C11.8492132,9.28101831 11.7965579,9.1289762 11.7848567,8.97143858 L11.470875,4.49260763 C11.3051083,2.11855245 9.32565871,0.147500465 6.79625363,0.00828117977 C4.04647632,-0.143760934 1.7140411,1.81630006 1.5365732,4.36437934 L1.21479075,8.96960675 C1.20308957,9.12714436 1.15043426,9.27918648 1.06072522,9.41107843 L0.157784157,10.7446526 C-0.265408521,11.3693076 0.212389663,12.186305 1.00026912,12.186305 L12.0032787,12.186305 C12.789208,12.186305 13.265056,11.3711394 12.8418633,10.7464845 Z M7.64848957,13.1242033 C8.16724189,13.1242033 8.48317375,13.6554348 8.217947,14.0749245 C7.87081199,14.628138 7.22919729,15 6.49787354,15 C5.76654978,15 5.12493508,14.628138 4.77780007,14.0749245 C4.51452352,13.6554348 4.82850519,13.1242033 5.3472575,13.1242033 L7.64848957,13.1242033 Z" id="形状"></path>
                                </g>
                                <polygon id="Stroke-1" stroke-opacity="0.00784313771" stroke="#000000" stroke-width="1.33333335e-11" points="0 0 23.9999985 0 23.9999985 23.9999985 0 23.9999985"></polygon>
                            </g>
                        </g>
                    </g>
                </g>
            </g>
        </g>
    </g>
</svg>