<?xml version="1.0" encoding="UTF-8"?>
<svg width="24px" height="24px" viewBox="0 0 24 24" version="1.1" xmlns="http://www.w3.org/2000/svg" xmlns:xlink="http://www.w3.org/1999/xlink">
    <title>pdf</title>
    <g id="主界面-0819" stroke="none" stroke-width="1" fill="none" fill-rule="evenodd">
        <g id="设置-隐私安全" transform="translate(-520.000000, -1524.000000)">
            <g id="编组-8" transform="translate(460.000000, 201.000000)">
                <g id="编组-7">
                    <g id="编组-25" transform="translate(40.000000, 16.000000)">
                        <g id="编组-2备份-37" transform="translate(0.000000, 1290.000000)">
                            <g id="pdf" transform="translate(20.000000, 17.000000)">
                                <path d="M12.5833333,5 L12.5833333,10.4166667 L18,10.4166667 L17.9993333,9.333 L13.6666667,9.33333333 L13.6663333,5 L18,9.33333333 L18,18.1666667 C18,19.2712362 17.1045695,20.1666667 16,20.1666667 L7,20.1666667 C5.8954305,20.1666667 5,19.2712362 5,18.1666667 L5,7 C5,5.8954305 5.8954305,5 7,5 L12.5833333,5 Z" id="形状结合" fill="#626E88"></path>
                                <polygon id="Stroke-1" stroke-opacity="0.00784313771" stroke="#000000" stroke-width="1.33333335e-11" points="0 0 23.9999985 0 23.9999985 23.9999985 0 23.9999985"></polygon>
                            </g>
                        </g>
                    </g>
                </g>
            </g>
        </g>
    </g>
</svg>