<?xml version="1.0" encoding="UTF-8"?>
<svg width="24px" height="24px" viewBox="0 0 24 24" version="1.1" xmlns="http://www.w3.org/2000/svg" xmlns:xlink="http://www.w3.org/1999/xlink">
    <title>plugin</title>
    <g id="主界面-0819" stroke="none" stroke-width="1" fill="none" fill-rule="evenodd">
        <g id="设置-隐私安全" transform="translate(-520.000000, -1170.000000)">
            <g id="编组-8" transform="translate(460.000000, 201.000000)">
                <g id="编组-7">
                    <g id="编组-25" transform="translate(40.000000, 16.000000)">
                        <g id="编组-2备份-31" transform="translate(0.000000, 936.000000)">
                            <g id="plugin" transform="translate(20.000000, 17.000000)">
                                <path d="M18.0436278,11.5911383 L16.9049608,11.5911383 L16.9049608,8.55468664 C16.9049608,7.71586225 16.2255501,7.03645163 15.3867258,7.03645163 L12.3502558,7.03645163 L12.3502558,5.89778457 C12.3502558,4.85020057 11.5000552,4 10.4524712,4 C9.40488719,4 8.55468662,4.85020057 8.55468662,5.89778457 L8.55468662,7.03645163 L5.51823499,7.03645163 C4.6794106,7.03645163 4.00759023,7.71586227 4.00759023,8.55468664 L4.00378592,11.4393148 L5.13866704,11.4393148 C6.26974386,11.4393148 7.18827511,12.357846 7.18827511,13.4889228 C7.18827511,14.6199996 6.26974386,15.5385309 5.13866704,15.5385309 L4.00380431,15.5385309 L4,18.423159 C4,19.2619834 4.67941063,19.941394 5.518235,19.941394 L8.40286313,19.941394 L8.40286313,18.802727 C8.40286313,17.6716502 9.32139438,16.7531189 10.4524712,16.7531189 C11.583548,16.7531189 12.5020793,17.6716502 12.5020793,18.802727 L12.5020793,19.941394 L15.3867074,19.941394 C16.2255318,19.941394 16.9049424,19.2619834 16.9049424,18.423159 L16.9049424,15.3867258 L18.0436094,15.3867258 C19.0911934,15.3867258 19.941394,14.5365252 19.941394,13.4889412 C19.941394,12.4413572 19.0911934,11.5911383 18.0436278,11.5911383 Z" id="路径" fill="#626E88" fill-rule="nonzero"></path>
                                <polygon id="Stroke-1" stroke-opacity="0.00784313771" stroke="#000000" stroke-width="1.33333335e-11" points="0 0 23.9999985 0 23.9999985 23.9999985 0 23.9999985"></polygon>
                            </g>
                        </g>
                    </g>
                </g>
            </g>
        </g>
    </g>
</svg>