<?xml version="1.0" encoding="UTF-8"?>
<svg width="24px" height="24px" viewBox="0 0 24 24" version="1.1" xmlns="http://www.w3.org/2000/svg" xmlns:xlink="http://www.w3.org/1999/xlink">
    <title>privacy_normal</title>
    <g id="主界面" stroke="none" stroke-width="1" fill="none" fill-rule="evenodd">
        <g id="切图" transform="translate(-151.000000, -1328.000000)">
            <g id="privacy" transform="translate(151.000000, 1328.000000)">
                <g id="Page-1">
                    <polygon id="Stroke-1" stroke-opacity="0.00784313771" stroke="#000000" stroke-width="1.33333335e-11" points="0 0 23.9999985 0 23.9999985 23.9999985 0 23.9999985"></polygon>
                    <g id="隐私" transform="translate(5.000000, 4.000000)" fill="#626E88" fill-rule="nonzero">
                        <path d="M8.48382839,0.232978511 L13.225432,2.20911514 C13.9972373,2.53077199 14.5,3.28495491 14.5,4.12112268 L14.5,10.2843808 C14.5,10.8852889 14.2390448,11.4565803 13.7848547,11.850029 L8.58318276,16.3561037 C7.80229398,17.0325615 6.64234922,17.0302079 5.86422245,16.3505797 L0.708784892,11.8475977 C0.258418734,11.4542419 0,10.8854548 0,10.2874929 L0,4.12915584 C0,3.28643316 0.510562421,2.52769878 1.29121779,2.21028218 L6.17887704,0.222961381 C6.91845953,-0.0777519889 7.74688754,-0.0741517085 8.48382839,0.232978511 Z M7.27655998,5.50152211 C6.48456483,5.50152211 5.84249597,6.14357152 5.84249597,6.93560557 C5.84249597,7.43282478 6.09553062,7.87093321 6.47987721,8.12818867 L6.47987721,8.12818867 L6.47985775,10.7863265 C6.47985775,11.2409875 6.84844924,11.609579 7.30311024,11.609579 C7.75779069,11.609579 8.12638218,11.241007 8.12638218,10.7863265 L8.12638218,10.7863265 L8.12614877,8.11102582 L8.12614877,8.11102582 L8.12544854,8.09154348 C8.48032726,7.83047567 8.71062399,7.40993126 8.71062399,6.93560557 C8.71062399,6.14359097 8.06857458,5.50152211 7.27655998,5.50152211 Z" id="形状"></path>
                    </g>
                </g>
            </g>
        </g>
    </g>
</svg>