<?xml version="1.0" encoding="UTF-8"?>
<svg width="24px" height="24px" viewBox="0 0 24 24" version="1.1" xmlns="http://www.w3.org/2000/svg" xmlns:xlink="http://www.w3.org/1999/xlink">
    <title>protected content</title>
    <g id="主界面-0819" stroke="none" stroke-width="1" fill="none" fill-rule="evenodd">
        <g id="设置-隐私安全" transform="translate(-520.000000, -1583.000000)">
            <g id="编组-8" transform="translate(460.000000, 201.000000)">
                <g id="编组-7">
                    <g id="编组-25" transform="translate(40.000000, 16.000000)">
                        <g id="编组-2备份-38" transform="translate(0.000000, 1349.000000)">
                            <g id="protected-content" transform="translate(20.000000, 17.000000)">
                                <g id="安全" transform="translate(5.000000, 4.000000)" fill="#626E88" fill-rule="nonzero">
                                    <path d="M6.9977065,0 L13.995413,3.00416704 L13.995413,7.5553809 C13.995413,8.59873806 13.8183301,9.61228758 13.46474,10.5955258 C13.11088,11.5790158 12.6282553,12.4663731 12.0166322,13.2578854 C11.3808319,14.0853756 10.637386,14.7869613 9.78600654,15.3626066 C8.93433928,15.938252 8.00508582,16.3458088 6.9977065,16.585853 C5.99032718,16.3458088 5.06082187,15.938252 4.20940646,15.3626066 C3.35773919,14.7869613 2.61429325,14.0853756 1.97878081,13.2578854 C1.36715765,12.4663731 0.884263179,11.5790158 0.530673036,10.5955258 C0.17681306,9.61232355 0,8.59873806 0,7.5553809 L0,3.00414905 L6.9977065,0 L6.9977065,0 Z M6.9977065,8.27490158 L6.9977065,1.63697341 L1.5470828,3.99353946 L1.5470828,8.27490158 L6.9977065,8.27490158 L6.9977065,15.0027563 C7.72906389,14.7989779 8.40084199,14.4782715 9.01246515,14.0403493 C9.62408831,13.602697 10.1637558,13.0841305 10.6314676,12.484308 C11.1109802,11.896862 11.5067363,11.2461669 11.8187361,10.5325106 C12.1304481,9.81912414 12.3404327,9.06641391 12.4483662,8.27490158 L6.9977065,8.27490158 Z" id="形状"></path>
                                </g>
                                <polygon id="Stroke-1" stroke-opacity="0.00784313771" stroke="#000000" stroke-width="1.33333335e-11" points="0 0 23.9999985 0 23.9999985 23.9999985 0 23.9999985"></polygon>
                            </g>
                        </g>
                    </g>
                </g>
            </g>
        </g>
    </g>
</svg>