<?xml version="1.0" encoding="UTF-8"?>
<svg width="24px" height="24px" viewBox="0 0 24 24" version="1.1" xmlns="http://www.w3.org/2000/svg" xmlns:xlink="http://www.w3.org/1999/xlink">
    <title>reset setting_normal</title>
    <g id="主界面" stroke="none" stroke-width="1" fill="none" fill-rule="evenodd">
        <g id="切图" transform="translate(-244.000000, -1328.000000)">
            <g id="reset-setting" transform="translate(244.000000, 1328.000000)">
                <polygon id="Stroke-1" stroke-opacity="0.00784313771" stroke="#000000" stroke-width="1.33333335e-11" points="0 0 23.9999985 0 23.9999985 23.9999985 0 23.9999985"></polygon>
                <g id="011操作_重置" transform="translate(4.000000, 4.000000)" fill="#626E88" fill-rule="nonzero">
                    <g id="循环1" transform="translate(1.000000, 0.000000)">
                        <path d="M7.67809802,16.5527319 C7.021848,15.9640691 6.36341776,15.3764964 5.70607763,14.7878336 C5.43027821,14.5414673 5.43790902,14.060726 5.69953694,13.8110894 C6.34815613,13.1875429 6.99568521,12.5639964 7.64430441,11.94154 C8.26785093,11.3452463 9.20535095,12.2347812 8.68100501,12.8528772 C11.9142899,12.4778772 13.077444,8.92954863 11.3212667,6.38085673 C10.3052783,4.91356019 12.6512086,3.60215029 13.6562958,5.05745554 C16.7162522,9.48986841 13.8307144,15.0516418 8.69081606,15.6152319 C9.26312711,16.2126156 8.32453698,17.1294034 7.67809802,16.5527319 Z M6.21407183,1.11995548 C5.64285089,0.523661862 6.58144102,-0.39421606 7.22678987,0.183545578 C7.88413,0.770028146 8.54038001,1.35760083 9.19990037,1.94735375 C9.47351956,2.1915398 9.46806898,2.67228108 9.20644106,2.92409795 C8.55782187,3.54655436 7.9113829,4.16792064 7.26167359,4.79037705 C6.6403073,5.38776078 5.70171717,4.49713577 6.22606311,3.88122006 C2.99386829,4.25403983 1.82962408,7.8034585 3.58798167,10.3510603 C4.60178982,11.8161766 2.25803978,13.1286766 1.25404267,11.6744615 C-1.80700389,7.24313872 1.07744383,1.68572584 6.21407183,1.11995548 Z" id="形状"></path>
                    </g>
                </g>
            </g>
        </g>
    </g>
</svg>