<?xml version="1.0" encoding="UTF-8"?>
<svg width="24px" height="24px" viewBox="0 0 24 24" version="1.1" xmlns="http://www.w3.org/2000/svg" xmlns:xlink="http://www.w3.org/1999/xlink">
    <title>search engine_normal</title>
    <g id="主界面备份" stroke="none" stroke-width="1" fill="none" fill-rule="evenodd">
        <g id="切图" transform="translate(-86.000000, -1328.000000)">
            <g id="search-engine" transform="translate(86.000000, 1328.000000)">
                <g id="Page-1">
                    <polygon id="Stroke-1" stroke-opacity="0.00784313771" stroke="#000000" stroke-width="1.33333335e-11" points="0 0 23.9999985 0 23.9999985 23.9999985 0 23.9999985"></polygon>
                    <g id="trash" transform="translate(3.000000, 3.000000)" fill="#626E88" fill-rule="nonzero">
                        <g id="Group" transform="translate(0.000000, 1.000000)">
                            <g id="编组-22">
                                <path d="M6.42857143,5.19140286e-12 C9.97897339,5.19140286e-12 12.8571429,2.87816947 12.8571429,6.42857143 C12.8571429,7.96027952 12.3214531,9.36687057 11.4272022,10.471216 C11.5334029,10.4938487 11.6351933,10.5395086 11.7259591,10.6068552 L11.8156854,10.6843146 L16.0656854,14.9343146 C16.3781049,15.246734 16.3781049,15.753266 16.0656854,16.0656854 C15.7816678,16.3497031 15.3372265,16.3755229 15.0240409,16.1431448 L14.9343146,16.0656854 L10.6843146,11.8156854 C10.5736003,11.7049711 10.5021206,11.5698796 10.4698755,11.4276882 C9.36687057,12.3214531 7.96027952,12.8571429 6.42857143,12.8571429 C2.87816947,12.8571429 5.19140286e-12,9.97897339 5.19140286e-12,6.42857143 C5.19140286e-12,2.87816947 2.87816947,5.19140286e-12 6.42857143,5.19140286e-12 Z M6.42857143,1.7 C3.81705354,1.7 1.7,3.81705354 1.7,6.42857143 C1.7,9.04008932 3.81705354,11.1571429 6.42857143,11.1571429 C9.04008932,11.1571429 11.1571429,9.04008932 11.1571429,6.42857143 C11.1571429,3.81705354 9.04008932,1.7 6.42857143,1.7 Z" id="形状结合"></path>
                            </g>
                        </g>
                    </g>
                </g>
            </g>
        </g>
    </g>
</svg>