<?xml version="1.0" encoding="UTF-8"?>
<svg width="878px" height="4px" viewBox="0 0 878 4" version="1.1" xmlns="http://www.w3.org/2000/svg" xmlns:xlink="http://www.w3.org/1999/xlink">
    <title>slider_未激活部分</title>
    <g id="主界面-0819" stroke="none" stroke-width="1" fill="none" fill-rule="evenodd" fill-opacity="0.2">
        <g id="设置-字体" transform="translate(-522.000000, -302.000000)" fill="#000000" fill-rule="nonzero">
            <g id="编组-8" transform="translate(460.000000, 201.000000)">
                <g id="编组-25" transform="translate(40.000000, 16.000000)">
                    <g id="编组-15" transform="translate(0.000000, 40.000000)">
                        <g id="Group-Copy-+-平衡" transform="translate(20.000000, 33.000000)">
                            <g id="slider_未激活部分-+-slider_激活部分-+-slider_handle" transform="translate(2.000000, 0.000000)">
                                <path d="M0,16 L2,16 L2,12 L0,12 L0,16 Z M3,16 L5,16 L5,12 L3,12 L3,16 Z M6,16 L8,16 L8,12 L6,12 L6,16 Z M9,16 L11,16 L11,12 L9,12 L9,16 Z M12,16 L14,16 L14,12 L12,12 L12,16 Z M15,16 L17,16 L17,12 L15,12 L15,16 Z M18,16 L20,16 L20,12 L18,12 L18,16 Z M21,16 L23,16 L23,12 L21,12 L21,16 Z M24,16 L26,16 L26,12 L24,12 L24,16 Z M27,16 L29,16 L29,12 L27,12 L27,16 Z M30,16 L32,16 L32,12 L30,12 L30,16 Z M33,16 L35,16 L35,12 L33,12 L33,16 Z M36,16 L38,16 L38,12 L36,12 L36,16 Z M39,16 L41,16 L41,12 L39,12 L39,16 Z M42,16 L44,16 L44,12 L42,12 L42,16 Z M45,16 L47,16 L47,12 L45,12 L45,16 Z M48,16 L50,16 L50,12 L48,12 L48,16 Z M51,16 L53,16 L53,12 L51,12 L51,16 Z M54,16 L56,16 L56,12 L54,12 L54,16 Z M57,16 L59,16 L59,12 L57,12 L57,16 Z M60,16 L62,16 L62,12 L60,12 L60,16 Z M63,16 L65,16 L65,12 L63,12 L63,16 Z M66,16 L68,16 L68,12 L66,12 L66,16 Z M69,16 L71,16 L71,12 L69,12 L69,16 Z M72,16 L74,16 L74,12 L72,12 L72,16 Z M75,16 L77,16 L77,12 L75,12 L75,16 Z M78,16 L80,16 L80,12 L78,12 L78,16 Z M81,16 L83,16 L83,12 L81,12 L81,16 Z M84,16 L86,16 L86,12 L84,12 L84,16 Z M87,16 L89,16 L89,12 L87,12 L87,16 Z M90,16 L92,16 L92,12 L90,12 L90,16 Z M93,16 L95,16 L95,12 L93,12 L93,16 Z M96,16 L98,16 L98,12 L96,12 L96,16 Z M99,16 L101,16 L101,12 L99,12 L99,16 Z M102,16 L104,16 L104,12 L102,12 L102,16 Z M105,16 L107,16 L107,12 L105,12 L105,16 Z M108,16 L110,16 L110,12 L108,12 L108,16 Z M111,16 L113,16 L113,12 L111,12 L111,16 Z M114,16 L116,16 L116,12 L114,12 L114,16 Z M117,16 L119,16 L119,12 L117,12 L117,16 Z M120,16 L122,16 L122,12 L120,12 L120,16 Z M123,16 L125,16 L125,12 L123,12 L123,16 Z M126,16 L128,16 L128,12 L126,12 L126,16 Z M129,16 L131,16 L131,12 L129,12 L129,16 Z M132,16 L134,16 L134,12 L132,12 L132,16 Z M135,16 L137,16 L137,12 L135,12 L135,16 Z M138,16 L140,16 L140,12 L138,12 L138,16 Z M141,16 L143,16 L143,12 L141,12 L141,16 Z M144,16 L146,16 L146,12 L144,12 L144,16 Z M147,16 L149,16 L149,12 L147,12 L147,16 Z M150,16 L152,16 L152,12 L150,12 L150,16 Z M153,16 L155,16 L155,12 L153,12 L153,16 Z M156,16 L158,16 L158,12 L156,12 L156,16 Z M159,16 L161,16 L161,12 L159,12 L159,16 Z M162,16 L164,16 L164,12 L162,12 L162,16 Z M165,16 L167,16 L167,12 L165,12 L165,16 Z M168,16 L170,16 L170,12 L168,12 L168,16 Z M171,16 L173,16 L173,12 L171,12 L171,16 Z M174,16 L176,16 L176,12 L174,12 L174,16 Z M177,16 L179,16 L179,12 L177,12 L177,16 Z M180,16 L182,16 L182,12 L180,12 L180,16 Z M183,16 L185,16 L185,12 L183,12 L183,16 Z M186,16 L188,16 L188,12 L186,12 L186,16 Z M189,16 L191,16 L191,12 L189,12 L189,16 Z M192,16 L194,16 L194,12 L192,12 L192,16 Z M195,16 L197,16 L197,12 L195,12 L195,16 Z M198,16 L200,16 L200,12 L198,12 L198,16 Z M201,16 L203,16 L203,12 L201,12 L201,16 Z M204,16 L206,16 L206,12 L204,12 L204,16 Z M207,16 L209,16 L209,12 L207,12 L207,16 Z M210,16 L212,16 L212,12 L210,12 L210,16 Z M213,16 L215,16 L215,12 L213,12 L213,16 Z M216,16 L218,16 L218,12 L216,12 L216,16 Z M219,16 L221,16 L221,12 L219,12 L219,16 Z M222,16 L224,16 L224,12 L222,12 L222,16 Z M225,16 L227,16 L227,12 L225,12 L225,16 Z M228,16 L230,16 L230,12 L228,12 L228,16 Z M231,16 L233,16 L233,12 L231,12 L231,16 Z M234,16 L236,16 L236,12 L234,12 L234,16 Z M237,16 L239,16 L239,12 L237,12 L237,16 Z M240,16 L242,16 L242,12 L240,12 L240,16 Z M243,16 L245,16 L245,12 L243,12 L243,16 Z M246,16 L248,16 L248,12 L246,12 L246,16 Z M249,16 L251,16 L251,12 L249,12 L249,16 Z M252,16 L254,16 L254,12 L252,12 L252,16 Z M255,16 L257,16 L257,12 L255,12 L255,16 Z M258,16 L260,16 L260,12 L258,12 L258,16 Z M261,16 L263,16 L263,12 L261,12 L261,16 Z M264,16 L266,16 L266,12 L264,12 L264,16 Z M267,16 L269,16 L269,12 L267,12 L267,16 Z M270,16 L272,16 L272,12 L270,12 L270,16 Z M273,16 L275,16 L275,12 L273,12 L273,16 Z M276,16 L278,16 L278,12 L276,12 L276,16 Z M279,16 L281,16 L281,12 L279,12 L279,16 Z M282,16 L284,16 L284,12 L282,12 L282,16 Z M285,16 L287,16 L287,12 L285,12 L285,16 Z M288,16 L290,16 L290,12 L288,12 L288,16 Z M291,16 L293,16 L293,12 L291,12 L291,16 Z M294,16 L296,16 L296,12 L294,12 L294,16 Z M297,16 L299,16 L299,12 L297,12 L297,16 Z M300,16 L302,16 L302,12 L300,12 L300,16 Z M303,16 L305,16 L305,12 L303,12 L303,16 Z M306,16 L308,16 L308,12 L306,12 L306,16 Z M309,16 L311,16 L311,12 L309,12 L309,16 Z M312,16 L314,16 L314,12 L312,12 L312,16 Z M315,16 L317,16 L317,12 L315,12 L315,16 Z M318,16 L320,16 L320,12 L318,12 L318,16 Z M321,16 L323,16 L323,12 L321,12 L321,16 Z M324,16 L326,16 L326,12 L324,12 L324,16 Z M327,16 L329,16 L329,12 L327,12 L327,16 Z M330,16 L332,16 L332,12 L330,12 L330,16 Z M333,16 L335,16 L335,12 L333,12 L333,16 Z M336,16 L338,16 L338,12 L336,12 L336,16 Z M339,16 L341,16 L341,12 L339,12 L339,16 Z M342,16 L344,16 L344,12 L342,12 L342,16 Z M345,16 L347,16 L347,12 L345,12 L345,16 Z M348,16 L350,16 L350,12 L348,12 L348,16 Z M351,16 L353,16 L353,12 L351,12 L351,16 Z M354,16 L356,16 L356,12 L354,12 L354,16 Z M357,16 L359,16 L359,12 L357,12 L357,16 Z M360,16 L362,16 L362,12 L360,12 L360,16 Z M363,16 L365,16 L365,12 L363,12 L363,16 Z M366,16 L368,16 L368,12 L366,12 L366,16 Z M369,16 L371,16 L371,12 L369,12 L369,16 Z M372,16 L374,16 L374,12 L372,12 L372,16 Z M375,16 L377,16 L377,12 L375,12 L375,16 Z M378,16 L380,16 L380,12 L378,12 L378,16 Z M381,16 L383,16 L383,12 L381,12 L381,16 Z M384,16 L386,16 L386,12 L384,12 L384,16 Z M387,16 L389,16 L389,12 L387,12 L387,16 Z M390,16 L392,16 L392,12 L390,12 L390,16 Z M393,16 L395,16 L395,12 L393,12 L393,16 Z M396,16 L398,16 L398,12 L396,12 L396,16 Z M399,16 L401,16 L401,12 L399,12 L399,16 Z M402,16 L404,16 L404,12 L402,12 L402,16 Z M405,16 L407,16 L407,12 L405,12 L405,16 Z M408,16 L410,16 L410,12 L408,12 L408,16 Z M411,16 L413,16 L413,12 L411,12 L411,16 Z M414,16 L416,16 L416,12 L414,12 L414,16 Z M417,16 L419,16 L419,12 L417,12 L417,16 Z M420,16 L422,16 L422,12 L420,12 L420,16 Z M423,16 L425,16 L425,12 L423,12 L423,16 Z M426,16 L428,16 L428,12 L426,12 L426,16 Z M429,16 L431,16 L431,12 L429,12 L429,16 Z M432,16 L434,16 L434,12 L432,12 L432,16 Z M435,16 L437,16 L437,12 L435,12 L435,16 Z M438,16 L440,16 L440,12 L438,12 L438,16 Z M441,16 L443,16 L443,12 L441,12 L441,16 Z M444,16 L446,16 L446,12 L444,12 L444,16 Z M447,16 L449,16 L449,12 L447,12 L447,16 Z M450,16 L452,16 L452,12 L450,12 L450,16 Z M453,16 L455,16 L455,12 L453,12 L453,16 Z M456,16 L458,16 L458,12 L456,12 L456,16 Z M459,16 L461,16 L461,12 L459,12 L459,16 Z M462,16 L464,16 L464,12 L462,12 L462,16 Z M465,16 L467,16 L467,12 L465,12 L465,16 Z M468,16 L470,16 L470,12 L468,12 L468,16 Z M471,16 L473,16 L473,12 L471,12 L471,16 Z M474,16 L476,16 L476,12 L474,12 L474,16 Z M477,16 L479,16 L479,12 L477,12 L477,16 Z M480,16 L482,16 L482,12 L480,12 L480,16 Z M483,16 L485,16 L485,12 L483,12 L483,16 Z M486,16 L488,16 L488,12 L486,12 L486,16 Z M489,16 L491,16 L491,12 L489,12 L489,16 Z M492,16 L494,16 L494,12 L492,12 L492,16 Z M495,16 L497,16 L497,12 L495,12 L495,16 Z M498,16 L500,16 L500,12 L498,12 L498,16 Z M501,16 L503,16 L503,12 L501,12 L501,16 Z M504,16 L506,16 L506,12 L504,12 L504,16 Z M507,16 L509,16 L509,12 L507,12 L507,16 Z M510,16 L512,16 L512,12 L510,12 L510,16 Z M513,16 L515,16 L515,12 L513,12 L513,16 Z M516,16 L518,16 L518,12 L516,12 L516,16 Z M519,16 L521,16 L521,12 L519,12 L519,16 Z M522,16 L524,16 L524,12 L522,12 L522,16 Z M525,16 L527,16 L527,12 L525,12 L525,16 Z M528,16 L530,16 L530,12 L528,12 L528,16 Z M531,16 L533,16 L533,12 L531,12 L531,16 Z M534,16 L536,16 L536,12 L534,12 L534,16 Z M537,16 L539,16 L539,12 L537,12 L537,16 Z M540,16 L542,16 L542,12 L540,12 L540,16 Z M543,16 L545,16 L545,12 L543,12 L543,16 Z M546,16 L548,16 L548,12 L546,12 L546,16 Z M549,16 L551,16 L551,12 L549,12 L549,16 Z M552,16 L554,16 L554,12 L552,12 L552,16 Z M555,16 L557,16 L557,12 L555,12 L555,16 Z M558,16 L560,16 L560,12 L558,12 L558,16 Z M561,16 L563,16 L563,12 L561,12 L561,16 Z M564,16 L566,16 L566,12 L564,12 L564,16 Z M567,16 L569,16 L569,12 L567,12 L567,16 Z M570,16 L572,16 L572,12 L570,12 L570,16 Z M573,16 L575,16 L575,12 L573,12 L573,16 Z M576,16 L578,16 L578,12 L576,12 L576,16 Z M579,16 L581,16 L581,12 L579,12 L579,16 Z M582,16 L584,16 L584,12 L582,12 L582,16 Z M585,16 L587,16 L587,12 L585,12 L585,16 Z M588,16 L590,16 L590,12 L588,12 L588,16 Z M591,16 L593,16 L593,12 L591,12 L591,16 Z M594,16 L596,16 L596,12 L594,12 L594,16 Z M597,16 L599,16 L599,12 L597,12 L597,16 Z M600,16 L602,16 L602,12 L600,12 L600,16 Z M603,16 L605,16 L605,12 L603,12 L603,16 Z M606,16 L608,16 L608,12 L606,12 L606,16 Z M609,16 L611,16 L611,12 L609,12 L609,16 Z M612,16 L614,16 L614,12 L612,12 L612,16 Z M615,16 L617,16 L617,12 L615,12 L615,16 Z M618,16 L620,16 L620,12 L618,12 L618,16 Z M621,16 L623,16 L623,12 L621,12 L621,16 Z M624,16 L626,16 L626,12 L624,12 L624,16 Z M627,16 L629,16 L629,12 L627,12 L627,16 Z M630,16 L632,16 L632,12 L630,12 L630,16 Z M633,16 L635,16 L635,12 L633,12 L633,16 Z M636,16 L638,16 L638,12 L636,12 L636,16 Z M639,16 L641,16 L641,12 L639,12 L639,16 Z M642,16 L644,16 L644,12 L642,12 L642,16 Z M645,16 L647,16 L647,12 L645,12 L645,16 Z M648,16 L650,16 L650,12 L648,12 L648,16 Z M651,16 L653,16 L653,12 L651,12 L651,16 Z M654,16 L656,16 L656,12 L654,12 L654,16 Z M657,16 L659,16 L659,12 L657,12 L657,16 Z M660,16 L662,16 L662,12 L660,12 L660,16 Z M663,16 L665,16 L665,12 L663,12 L663,16 Z M666,16 L668,16 L668,12 L666,12 L666,16 Z M669,16 L671,16 L671,12 L669,12 L669,16 Z M672,16 L674,16 L674,12 L672,12 L672,16 Z M675,16 L677,16 L677,12 L675,12 L675,16 Z M678,16 L680,16 L680,12 L678,12 L678,16 Z M681,16 L683,16 L683,12 L681,12 L681,16 Z M684,16 L686,16 L686,12 L684,12 L684,16 Z M687,16 L689,16 L689,12 L687,12 L687,16 Z M690,16 L692,16 L692,12 L690,12 L690,16 Z M693,16 L695,16 L695,12 L693,12 L693,16 Z M696,16 L698,16 L698,12 L696,12 L696,16 Z M699,16 L701,16 L701,12 L699,12 L699,16 Z M702,16 L704,16 L704,12 L702,12 L702,16 Z M705,16 L707,16 L707,12 L705,12 L705,16 Z M708,16 L710,16 L710,12 L708,12 L708,16 Z M711,16 L713,16 L713,12 L711,12 L711,16 Z M714,16 L716,16 L716,12 L714,12 L714,16 Z M717,16 L719,16 L719,12 L717,12 L717,16 Z M720,16 L722,16 L722,12 L720,12 L720,16 Z M723,16 L725,16 L725,12 L723,12 L723,16 Z M726,16 L728,16 L728,12 L726,12 L726,16 Z M729,16 L731,16 L731,12 L729,12 L729,16 Z M732,16 L734,16 L734,12 L732,12 L732,16 Z M735,16 L737,16 L737,12 L735,12 L735,16 Z M738,16 L740,16 L740,12 L738,12 L738,16 Z M741,16 L743,16 L743,12 L741,12 L741,16 Z M744,16 L746,16 L746,12 L744,12 L744,16 Z M747,16 L749,16 L749,12 L747,12 L747,16 Z M750,16 L752,16 L752,12 L750,12 L750,16 Z M753,16 L755,16 L755,12 L753,12 L753,16 Z M756,16 L758,16 L758,12 L756,12 L756,16 Z M759,16 L761,16 L761,12 L759,12 L759,16 Z M762,16 L764,16 L764,12 L762,12 L762,16 Z M765,16 L767,16 L767,12 L765,12 L765,16 Z M768,16 L770,16 L770,12 L768,12 L768,16 Z M771,16 L773,16 L773,12 L771,12 L771,16 Z M774,16 L776,16 L776,12 L774,12 L774,16 Z M777,16 L779,16 L779,12 L777,12 L777,16 Z M780,16 L782,16 L782,12 L780,12 L780,16 Z M783,16 L785,16 L785,12 L783,12 L783,16 Z M786,16 L788,16 L788,12 L786,12 L786,16 Z M789,16 L791,16 L791,12 L789,12 L789,16 Z M792,16 L794,16 L794,12 L792,12 L792,16 Z M795,16 L797,16 L797,12 L795,12 L795,16 Z M798,16 L800,16 L800,12 L798,12 L798,16 Z M801,16 L803,16 L803,12 L801,12 L801,16 Z M804,16 L806,16 L806,12 L804,12 L804,16 Z M807,16 L809,16 L809,12 L807,12 L807,16 Z M810,16 L812,16 L812,12 L810,12 L810,16 Z M813,16 L815,16 L815,12 L813,12 L813,16 Z M816,16 L818,16 L818,12 L816,12 L816,16 Z M819,16 L821,16 L821,12 L819,12 L819,16 Z M822,16 L824,16 L824,12 L822,12 L822,16 Z M825,16 L827,16 L827,12 L825,12 L825,16 Z M828,16 L830,16 L830,12 L828,12 L828,16 Z M831,16 L833,16 L833,12 L831,12 L831,16 Z M834,16 L836,16 L836,12 L834,12 L834,16 Z M837,16 L839,16 L839,12 L837,12 L837,16 Z M840,16 L842,16 L842,12 L840,12 L840,16 Z M843,16 L845,16 L845,12 L843,12 L843,16 Z M846,16 L848,16 L848,12 L846,12 L846,16 Z M849,16 L851,16 L851,12 L849,12 L849,16 Z M852,16 L854,16 L854,12 L852,12 L852,16 Z M855,16 L857,16 L857,12 L855,12 L855,16 Z M858,16 L860,16 L860,12 L858,12 L858,16 Z M861,16 L863,16 L863,12 L861,12 L861,16 Z M864,16 L866,16 L866,12 L864,12 L864,16 Z M867,16 L869,16 L869,12 L867,12 L867,16 Z M870,16 L872,16 L872,12 L870,12 L870,16 Z M873,16 L875,16 L875,12 L873,12 L873,16 Z M876,16 L878,16 L878,12 L876,12 L876,16 Z" id="slider_未激活部分"></path>
                            </g>
                        </g>
                    </g>
                </g>
            </g>
        </g>
    </g>
</svg>