<?xml version="1.0" encoding="UTF-8"?>
<svg width="24px" height="24px" viewBox="0 0 24 24" version="1.1" xmlns="http://www.w3.org/2000/svg" xmlns:xlink="http://www.w3.org/1999/xlink">
    <title>sound</title>
    <g id="主界面-0819" stroke="none" stroke-width="1" fill="none" fill-rule="evenodd">
        <g id="设置-隐私安全" transform="translate(-520.000000, -1052.000000)">
            <g id="编组-8" transform="translate(460.000000, 201.000000)">
                <g id="编组-7">
                    <g id="编组-25" transform="translate(40.000000, 16.000000)">
                        <g id="编组-2备份-29" transform="translate(0.000000, 818.000000)">
                            <g id="sound" transform="translate(20.000000, 17.000000)">
                                <g id="声音" transform="translate(3.000000, 5.000000)" fill="#626E88" fill-rule="nonzero">
                                    <path d="M11.8898673,3.58172032 C11.5314071,3.22326015 10.9502761,3.22326015 10.591835,3.58172032 C10.2333939,3.9401805 10.2333749,4.52131151 10.591835,4.8797526 C11.6672156,5.95513313 11.6672156,7.69852618 10.591835,8.77384945 C10.2333749,9.13230963 10.2333749,9.71344064 10.591835,10.0718817 C10.9502952,10.4303419 11.5314262,10.4303419 11.8898673,10.0718817 C13.6820728,8.27967628 13.6820728,5.37384945 11.8898673,3.5815295 L11.8898673,3.58172032 Z" id="路径"></path>
                                    <path d="M7.59158922,0.218205594 L7.59158922,0.218205594 L3.67518521,3.1555563 L1.22624484,3.1555563 C0.545504445,3.1555563 0.00370195761,3.69846556 0.00370195761,4.36810008 L0.00370195761,9.28599811 C0.00370195761,9.94660673 0.551057381,10.4985419 1.22624484,10.4985419 L3.67518521,10.4985419 L7.59158922,13.4358926 C8.13613955,13.8442147 8.57048985,13.6207997 8.57048985,12.9431888 L8.57048985,0.710947602 C8.57048985,0.0418855514 8.13215136,-0.187158764 7.59158922,0.218243759 L7.59158922,0.218205594 Z" id="路径"></path>
                                    <path d="M14.485951,0.985713003 C14.1274908,0.627252829 13.5463598,0.627252829 13.1879187,0.985713003 C12.8294776,1.34417318 12.8294585,1.92530419 13.1879187,2.28374529 C15.6970827,4.79290926 15.6970827,8.86105536 13.1879187,11.3702193 C12.8294585,11.7286795 12.8294585,12.3098105 13.1879187,12.6682516 C13.5463789,13.0267118 14.1275099,13.0267118 14.485951,12.6682516 L14.485951,12.6682325 C17.7119971,9.44218638 17.7119971,4.21177824 14.485951,0.985674838 L14.485951,0.985713003 Z" id="路径"></path>
                                </g>
                                <polygon id="Stroke-1" stroke-opacity="0.00784313771" stroke="#000000" stroke-width="1.33333335e-11" points="0 0 23.9999985 0 23.9999985 23.9999985 0 23.9999985"></polygon>
                            </g>
                        </g>
                    </g>
                </g>
            </g>
        </g>
    </g>
</svg>