<?xml version="1.0" encoding="UTF-8"?>
<svg width="24px" height="24px" viewBox="0 0 24 24" version="1.1" xmlns="http://www.w3.org/2000/svg" xmlns:xlink="http://www.w3.org/1999/xlink">
    <title>usb</title>
    <g id="主界面-0819" stroke="none" stroke-width="1" fill="none" fill-rule="evenodd">
        <g id="设置-隐私安全" transform="translate(-520.000000, -1347.000000)">
            <g id="编组-8" transform="translate(460.000000, 201.000000)">
                <g id="编组-7">
                    <g id="编组-25" transform="translate(40.000000, 16.000000)">
                        <g id="编组-2备份-34" transform="translate(0.000000, 1113.000000)">
                            <g id="usb" transform="translate(20.000000, 17.000000)">
                                <path d="M16,12 C17.1045695,12 18,12.8954305 18,14 L18,19 L6,19 L6,14 C6,12.8954305 6.8954305,12 8,12 L16,12 Z M15,6 C15.5522847,6 16,6.44771525 16,7 L16,11 L8,11 L8,7 C8,6.44771525 8.44771525,6 9,6 L15,6 Z M11,8 L10,8 L10,9 L11,9 L11,8 Z M14,8 L13,8 L13,9 L14,9 L14,8 Z" id="形状结合" fill="#626E88"></path>
                                <polygon id="Stroke-1" stroke-opacity="0.00784313771" stroke="#000000" stroke-width="1.33333335e-11" points="0 0 23.9999985 0 23.9999985 23.9999985 0 23.9999985"></polygon>
                            </g>
                        </g>
                    </g>
                </g>
            </g>
        </g>
    </g>
</svg>